<svg width="221" height="40" viewBox="0 0 221 40" fill="none" xmlns="http://www.w3.org/2000/svg">
<g clip-path="url(#clip0_234:57)">
<path fill-rule="evenodd" clip-rule="evenodd" d="M32.7057 15.344C29.5111 23.7835 26.897 30.8216 26.897 30.9851C26.897 31.1486 28.3849 31.2821 30.2035 31.2821H33.5101L34.6866 27.9024L35.8632 24.5228H41.895H47.9273L49.1279 27.9024L50.3289 31.2821H53.8125H57.2961L56.2387 28.4305C55.6574 26.8619 53.0411 19.8757 50.4248 12.9052L45.668 0.231506L42.0915 0.115753L38.5145 0L32.7057 15.344ZM137.158 15.6512V31.2821H140.327H143.495V15.6512V0.0202779H140.327H137.158V15.6512ZM148.564 15.6512V31.2821H159.76H170.955V28.5361V25.7901H163.139H155.324V12.9052V0.0202779H151.944H148.564V15.6512ZM173.912 2.55502V5.08976H176.869H179.826V2.55502V0.0202779H176.869H173.912V2.55502ZM5.44589 1.1005C4.09445 2.0468 4.22541 4.24611 5.94946 9.56357L7.39215 14.0129L6.17252 13.7446C4.35806 13.3462 2.62768 15.1662 2.94748 17.1369C3.15322 18.4056 3.02733 18.6502 1.79333 19.3781C-2.08397 21.6657 0.735923 28.9273 6.33178 31.0645C10.8014 32.7712 16.603 31.1262 19.3147 27.3824C22.5093 22.9728 22.6285 15.5717 19.5243 14.3914C18.9324 14.1667 18.4478 13.8545 18.4478 13.6986C18.4478 13.5427 19.0181 11.6345 19.7152 9.45838C21.5634 3.68889 21.3632 1.28765 19.0346 1.28765C17.6435 1.28765 16.2181 3.2808 14.4552 7.69124C13.5879 9.86182 12.8199 11.6978 12.7489 11.7709C12.6775 11.844 12.2893 10.8935 11.8858 9.65862C10.242 4.62674 7.89318 0.442734 6.71326 0.442734C6.53245 0.442734 5.96213 0.738876 5.44589 1.1005ZM7.69082 2.73076C8.33592 3.7155 11.2661 11.5107 11.2661 12.2424C11.2661 12.4401 10.6108 12.6779 9.80986 12.7717L8.35324 12.9415L6.85267 8.42336C5.19749 3.44175 5.11975 2.95593 5.85863 2.21705C6.59075 1.48493 6.93843 1.58252 7.69082 2.73076ZM209.821 5.30098V8.89186H207.92H206.019V10.7929V12.694H207.887H209.755L209.893 20.7561L210.032 28.8183L211.373 30.0155C212.804 31.2935 215.637 31.9018 218.903 31.6327L220.593 31.4933L220.715 29.1698L220.837 26.8463L218.897 26.8344C217.659 26.8268 216.814 26.5974 216.563 26.2008C216.348 25.8586 216.168 22.68 216.164 19.1364L216.157 12.694H218.481H220.804V10.7929V8.89186H218.481H216.157V5.30098V1.7101H212.989H209.821V5.30098ZM19.8766 3.21109C20.1622 3.95504 17.3706 12.9491 16.7314 13.3441C16.5024 13.4857 15.7619 13.4802 15.0859 13.3315L13.857 13.0615L15.3077 9.05451C16.1053 6.85098 17.0482 4.48691 17.4027 3.80126C18.0972 2.45785 19.4626 2.13214 19.8766 3.21109ZM44.1649 13.5393C45.1234 16.4441 45.9075 18.9632 45.9075 19.1369C45.9075 19.3109 44.1015 19.4533 41.8942 19.4533C39.6868 19.4533 37.8808 19.3223 37.8808 19.1626C37.8808 18.2658 41.8963 7.67392 42.1354 7.93965C42.2934 8.11497 43.2067 10.6349 44.1649 13.5393ZM69.7763 8.65613C68.8469 8.99874 67.5664 9.85718 66.9306 10.5639C66.2948 11.2707 65.6772 11.8491 65.5576 11.8491C65.4381 11.8491 65.3405 11.1837 65.3405 10.3705V8.89186H62.5945H59.8486V20.087V31.2821H62.8058H65.763V24.32C65.763 14.756 66.5462 13.0011 70.8155 13.0011C74.3823 13.0011 75.0515 14.8029 75.0545 24.4171L75.057 31.2821H78.0438H81.0305L80.8954 22.0936C80.7674 13.4045 80.7082 12.8216 79.8029 11.3658C79.2765 10.5196 78.1705 9.50612 77.345 9.1145C75.2302 8.11116 71.8168 7.90458 69.7763 8.65613ZM91.8066 8.48081C85.9648 10.2319 83.0841 18.3828 85.8575 25.3144C87.9977 30.6627 95.8575 32.4975 100.22 28.6675L101.672 27.3925V29.5622C101.672 34.1691 99.8328 36.1614 95.8824 35.834C93.8293 35.6638 93.3232 35.4428 92.3718 34.3035C91.3283 33.0534 91.0871 32.9719 88.4392 32.9719C85.2382 32.9719 84.9606 33.3669 86.4485 35.8066C88.4003 39.0075 93.2619 40.6082 98.538 39.7869C102.234 39.2116 104.871 37.6024 106.18 35.1235C107.144 33.2984 107.164 33.0184 107.164 21.0768V8.89186H104.418H101.672V10.4005V11.909L100.294 10.4482C98.3094 8.34436 94.8994 7.55352 91.8066 8.48081ZM119.718 8.50827C117.325 9.07141 115.932 9.91505 114.167 11.8685C112.198 14.0479 111.449 15.7885 111.118 18.9569C110.798 22.0155 111.696 25.344 113.519 27.8606C117.189 32.9275 126.97 33.3787 131.003 28.667C131.805 27.7305 132.653 26.4145 132.887 25.7432L133.312 24.5228H130.603C128.289 24.5228 127.825 24.6512 127.423 25.4036C126.857 26.4597 124.583 27.4799 122.795 27.4799C119.733 27.4799 117.303 25.3389 117.303 22.6428V21.5656H125.599H133.896L133.674 19.114C132.966 11.3096 127.018 6.7893 119.718 8.50827ZM189.901 8.60628C186.251 9.63961 184.577 11.3197 184.169 14.3597C183.889 16.4551 184.635 18.3646 186.158 19.4495C186.791 19.9002 189.472 20.8571 192.117 21.5761C197.222 22.9643 198.414 23.6487 198.414 25.1911C198.414 27.8204 193.335 28.9057 190.843 26.8087C190.128 26.2071 189.543 25.3516 189.543 24.9076C189.543 24.1882 189.214 24.1003 186.53 24.1003H183.518L183.764 25.6182C184.084 27.5868 185.724 29.7101 187.622 30.6108C191.697 32.5444 198.224 32.3589 201.46 30.2175C203.256 29.0291 204.726 26.4111 204.742 24.3753C204.768 20.9627 202.095 18.8944 195.88 17.5176C191.464 16.5396 190.388 15.9258 190.388 14.388C190.388 12.8849 191.353 12.2715 193.72 12.2715C195.953 12.2715 197.531 13.0281 197.836 14.2448C198.066 15.1582 198.296 15.2287 201.047 15.2287H204.012L203.751 13.9259C203.077 10.5547 199.926 8.51672 194.942 8.22776C193.118 8.12215 191.067 8.27592 189.901 8.60628ZM173.912 20.087V31.2821H176.869H179.826V20.087V8.89186H176.869H173.912V20.087ZM98.7285 13.3348C100.564 14.2837 101.431 16.2388 101.442 19.4533C101.453 22.555 100.626 24.3825 98.6977 25.5214C96.7362 26.6802 94.7016 26.4179 92.91 24.7758C91.4107 23.402 91.3351 23.2013 91.1826 20.1791C91.0664 17.88 91.2084 16.6287 91.7026 15.5865C92.9569 12.9441 96.0535 11.9513 98.7285 13.3348ZM125.238 13.3534C126.268 14.075 127.442 16.0749 127.442 17.1086C127.442 17.6638 126.669 17.7635 122.372 17.7635C118.075 17.7635 117.303 17.6638 117.303 17.1086C117.303 15.93 118.557 13.9956 119.737 13.3551C121.261 12.5288 124.059 12.5275 125.238 13.3534ZM15.4906 14.4041C19.6349 15.3246 20.5601 16.2358 20.5601 19.3967C20.5601 23.5583 17.8568 28.0967 14.4582 29.6404C12.2411 30.6475 8.61009 30.6513 6.40402 29.6493C2.98381 28.0955 0.345151 23.6048 1.54028 21.3712C2.21621 20.1085 3.05732 19.7486 4.06868 20.2897C5.0209 20.7996 7.5324 24.5287 7.33089 25.1345C7.00856 26.1019 5.62036 25.8066 4.25076 24.4797C2.95086 23.2191 2.81694 23.1726 2.81694 23.9799C2.81694 24.4695 3.40205 25.3622 4.11684 25.9638C6.13069 27.6586 8.73133 27.2751 8.73133 25.2832C8.73133 24.8045 9.04437 24.5228 9.57625 24.5228C10.2015 24.5228 10.4212 24.8045 10.4212 25.6068C10.4212 26.8344 11.1072 28.3249 11.6729 28.3249C11.8803 28.3249 11.9505 27.327 11.8288 26.107C11.5495 23.3057 12.6957 21.4139 15.6039 19.8757C16.7018 19.2949 17.6012 18.7043 17.6017 18.5636C17.6025 18.4225 16.2798 18.1842 14.6626 18.0338C13.0455 17.8838 11.2348 17.5387 10.6391 17.2671C9.54118 16.7669 8.84582 15.2241 9.35023 14.4079C9.6958 13.8485 12.98 13.8464 15.4906 14.4041ZM8.17749 17.3034C9.61047 19.4009 10.6337 22.367 10.106 22.8946C9.34009 23.6605 7.91557 22.8452 6.17758 20.6463C4.09276 18.0089 3.72987 16.7432 4.73785 15.6292C5.39942 14.8984 5.59966 14.8671 6.37234 15.3728C6.85647 15.6896 7.66886 16.5582 8.17749 17.3034ZM12.8528 19.0308H13.9482L12.9559 20.087C11.6788 21.4464 11.4443 21.4177 10.8922 19.8335C10.4993 18.7068 10.528 18.5589 11.0967 18.7773C11.46 18.9168 12.2504 19.0308 12.8528 19.0308Z" fill="black"/>
</g>
<defs>
<clipPath id="clip0_234:57">
<rect width="221" height="40" fill="white"/>
</clipPath>
</defs>
</svg>
