<svg width="110" height="40" viewBox="0 0 110 40" fill="none" xmlns="http://www.w3.org/2000/svg">
<g clip-path="url(#clip0_234:60)">
<path fill-rule="evenodd" clip-rule="evenodd" d="M36.2158 12.6986C35.0012 13.1695 32.276 13.3356 30.1603 13.0696C26.8592 12.6533 26.391 12.7783 26.8618 13.945C27.1639 14.6928 27.8058 17.5338 27.001 20.2581C26.1963 22.9825 24.1437 25.4131 23.7258 25.6581C23.3071 25.904 22.9653 26.6015 22.9653 27.2091C22.9653 28.0275 23.8875 27.8797 26.5279 26.6384C29.6966 25.1487 30.5225 25.079 34.0056 26.0056C36.1593 26.578 38.5312 26.8247 39.2767 26.5528C41.6687 22.1053 42.195 23.158 40.6327 28.0736C40.6327 29.3678 41.2802 30.2843 42.4427 30.6351C43.501 30.9541 45.1335 30.6326 46.372 29.8613C47.6741 29.0506 47.4582 27.3683 49.0309 29.372C50.0898 30.3856 50.9646 30.2021 52.6687 30.2021C54.3718 30.2021 55.4826 29.811 56.4225 29.3334C57.5099 28.7803 57.4582 26.842 59.1835 29.2898C59.1835 29.2898 64.3003 32.6315 67.9846 28.421C69.0372 31.0526 70.6161 31.0526 72.1126 30.0275C73.3613 28.6937 72.7214 25.3887 72.7214 25.3887C72.8836 24.358 72.7935 24.6061 73.5684 23.9074C74.8568 22.7456 74.437 25.5817 74.1055 27.2645C73.774 28.9474 73.774 30.5264 76.851 30.3766C77.1575 30.3425 79.3283 30.3766 81.1425 28.421C82.1951 32.1052 86.1116 30.1233 86.4056 28.9473C87.4582 31.5789 92.4959 29.9992 92.7214 28.421C93.774 31.5789 97.9846 31.5789 100.09 28.421C99.5635 32.1052 106.778 30.1458 106.778 30.1458L109.09 27.5356C109.437 25.4357 109.437 24.0584 109.437 24.0584C108.81 23.4625 108.979 23.6967 107.661 24.8088C105.753 26.4185 103.644 26.4177 104.651 24.5922C105.209 23.5834 106.716 21.9787 106.716 21.0252C106.716 21.0252 107.204 19.2913 105.516 19.2913C103.783 19.2913 102.969 19.9577 101.995 22.1717C101.299 23.7555 100.282 25.3132 99.7374 25.6338C99.0546 26.0341 96.83 25.5952 97.247 24.2221C97.5809 23.126 99.7448 20.2413 100.77 17.8133C102.141 14.5644 102.373 13.1501 101.648 12.4611C101.105 11.9458 100.742 11.7569 99.5537 12.0398C98.3125 12.336 96.9778 13.5429 96.4177 14.8741C95.8824 16.1498 95.0688 18.8439 94.6094 20.8616C94.1501 22.8792 93.3462 24.9372 92.8215 25.4357C92.8215 25.4357 92.0215 27.0344 90.8157 26.4414C90.0898 25.7896 90.6161 24.9332 91.6743 22.2909C92.1469 21.1108 92.0215 18.8792 92.0215 18.8792C92.0215 18.8792 92.0215 17.8133 91.0265 17.6127C90.1978 17.4456 88.1926 18.227 86.6078 18.979C85.0222 19.7302 82.9242 21.6346 81.9454 23.2108C80.9666 24.7878 79.3283 27.7986 78.7091 27.7986C76.851 27.7986 77.286 27.1225 79.3283 23.4944C79.891 22.4948 80.1172 21.0991 79.831 20.3907C79.5635 19.7287 78.5108 19.4583 77.8183 19.4583C77.1257 19.4583 75.132 21.579 74.2189 20.8659C74.3003 18.4211 74.8293 18.5972 75.5757 17.1108C76.3222 15.6244 76.6897 13.8073 76.3929 13.0729C76.0961 12.3385 75.5757 11.7376 75.132 11.7376C74.1567 11.7376 72.7972 12.5878 72.1126 13.626C71.4271 14.6651 70.3829 17.5036 69.792 19.9342C69.1321 22.6501 67.9961 24.8339 66.8459 25.5994C65.8168 26.2842 65.5207 27.8975 63.1158 27.8975C62.6723 27.8975 60.6161 26.3158 64.6369 25.105C65.5824 24.8203 68.0173 22.5318 68.0173 21.3022C68.0173 20.1675 67.4201 19.021 66.6904 18.7549C65.9608 18.4889 64.3778 18.5057 63.1728 18.7936C61.9273 19.0907 60.3452 20.4872 59.506 22.0307C58.6933 23.5246 57.3938 25.2066 56.6182 25.7689C55.4857 26.0754 56.4056 26.8422 52.8307 27.8673C52.8307 27.8673 51.1424 25.7895 55.4857 24.0902C57.8258 22.7347 57.0832 21.1595 57.0832 21.1595C57.0832 21.1595 57.3373 18.8145 55.3373 18.598C53.6492 18.4142 52.1165 18.948 50.6996 20.2128C49.5353 21.2518 48.5831 22.5561 48.5831 23.1117C48.5831 23.6673 47.9647 25.6616 47.2094 26.2575C45.9833 27.2236 44.9024 26.0375 45.8953 23.9678C46.852 21.9736 46.6153 21.7241 45.3529 21.0527C44.5446 20.623 43.2882 20.9379 43.5629 20.2581C43.9215 19.3685 45.9107 17.3685 44.3003 17.3685C43.0689 17.3685 41.0179 18.206 40.2537 18.9312C39.4905 19.6572 38.866 21.1679 38.866 22.2884C38.866 23.4097 38.6425 24.327 38.3695 24.327C38.0965 24.327 35.9137 23.7185 33.5189 22.9741C29.4845 21.7202 29.2054 21.4583 29.7204 19.4071C30.026 18.1893 30.4156 16.953 30.5861 16.6584C30.7566 16.3646 32.3838 15.8594 34.2026 15.5354C36.0206 15.2106 38.2114 14.5887 39.0709 14.1514C39.9295 13.715 40.6327 12.9924 40.6327 12.5475C40.6327 12.1019 40.1362 11.762 39.5285 11.7905C38.9216 11.8199 37.4305 12.2286 36.2158 12.6986ZM84.9753 25.4945C84.9753 28.5323 86.9319 25.7896 87.3684 24.3163C87.8221 22.7853 87.446 20.5148 87.0675 20.923C84.3003 23.9074 85.3529 24.737 84.9753 25.4945ZM52.7214 22.6316C52.7214 22.172 52.9227 21.904 53.2477 21.579C54.3003 20.5264 54.3003 22.0503 54.3003 22.6316C54.3003 23.213 53.774 23.6843 53.2477 23.6843C52.7881 23.6843 52.7214 23.0912 52.7214 22.6316ZM62.195 22.6316C62.195 22.172 62.3964 21.904 62.7214 21.579C63.774 20.5264 63.774 22.0503 63.774 22.6316C63.774 23.213 63.2477 23.6843 62.7214 23.6843C62.2618 23.6843 62.195 23.0912 62.195 22.6316Z" fill="black"/>
<path fill-rule="evenodd" clip-rule="evenodd" d="M21.9921 1.77185C21.0204 2.69507 20.2254 4.45926 20.2254 5.69218C20.2254 6.92511 20.5644 7.8151 21.6688 8.94729C22.6436 9.94674 23.4342 10.6279 24.8267 10.5262C26.0697 10.4355 26.8259 10.2789 27.6704 9.39179C28.6996 8.31162 29.12 6.71864 28.9443 4.56585C28.7994 2.7983 26.3828 1.91802 25.8793 1.57895C25.3758 1.23987 28.1757 0.526316 27.4582 0C23.774 0 22.9638 0.848624 21.9921 1.77185ZM26.5521 8.78246C27.4452 8.01451 28.1757 6.73627 28.1757 5.94062C28.1757 5.1458 28.066 3.61363 27.4582 3.15789C26.8514 2.70132 25.4388 2.4226 24.8267 2.63158C24.2136 2.8414 22.7136 3.28982 22.1951 4.21053C21.4592 5.51731 22.19 7.30279 23.3905 8.56256C24.8295 10.0741 25.0336 10.0884 26.5521 8.78246Z" fill="black"/>
<path fill-rule="evenodd" clip-rule="evenodd" d="M20.4268 11.0041C18.9286 11.0041 14.9958 12.3453 11.6867 13.9836C7.7813 15.9181 4.73631 16.8749 3.00932 16.7113L0.349486 16.4595L0.0897743 21.5976C-0.150503 26.3447 -0.0162303 26.7744 1.85652 27.2511C2.97134 27.5348 5.57287 27.7723 7.63731 27.7782C11.1867 27.7891 11.3916 27.6582 11.3916 25.377C11.3916 24.05 11.6328 21.8192 11.927 20.4201C12.3554 18.3857 12.1346 17.8032 10.8228 17.5119C9.51183 17.2207 9.66907 17.0184 11.6125 16.5031C12.9481 16.1481 15.0091 16.0885 16.191 16.3705C17.3738 16.6525 18.5938 17.6404 18.903 18.5653C19.2121 19.4902 18.675 22.2514 17.7104 24.7022C16.7458 27.1521 14.7299 31.132 13.2317 33.5458C11.7344 35.9605 10.5259 38.391 10.548 38.9475C10.5701 39.5039 12.6796 37.8069 15.2361 35.1757C17.7926 32.5445 21.1538 28.0543 22.705 25.1965C24.2633 22.3253 25.5256 18.7138 25.5256 17.1259C25.5256 15.5446 25.114 13.5203 24.6113 12.6273C24.3003 12.1052 23.2477 11.0526 20.4268 11.0041ZM7.74773 21.6001C10.147 22.0559 10.5083 21.8914 10.5083 20.3412C10.5083 18.7608 10.0056 18.5577 6.09141 18.5577C2.75403 18.5577 1.67454 18.8657 1.67454 19.8166C1.67454 20.5091 2.42011 21.0756 3.33087 21.0756C4.24162 21.0756 6.22921 21.3114 7.74773 21.6001ZM9.6249 24.4328C9.6249 23.9711 8.46503 23.5935 7.04722 23.5935C5.6294 23.5935 3.84057 23.3643 3.07204 23.084C2.1551 22.75 1.67454 23.0379 1.67454 23.9233C1.67454 24.9624 2.58795 25.2721 5.64972 25.2721C7.83607 25.2721 9.6249 24.8944 9.6249 24.4328ZM5.04284 26.6846C5.67975 26.9271 6.44211 26.8969 6.73539 26.6183C7.02866 26.3396 6.50748 26.1416 5.5764 26.1776C4.54727 26.2179 4.33791 26.4168 5.04284 26.6846Z" fill="black"/>
<path d="M105.44 14.4552C105.078 15.5371 105.336 15.6385 106.102 16.3662C106.932 17.1551 106.757 16.9211 107.912 16.9211C109.037 15.2631 109.037 15.2631 108.408 13.9575C108.408 13.9575 107.826 12.6827 107.189 12.6827C106.552 12.6827 105.765 13.48 105.44 14.4552Z" fill="black"/>
</g>
<defs>
<clipPath id="clip0_234:60">
<rect width="109.474" height="40" fill="white"/>
</clipPath>
</defs>
</svg>
