<svg width="189" height="40" viewBox="0 0 189 40" fill="none" xmlns="http://www.w3.org/2000/svg">
<path fill-rule="evenodd" clip-rule="evenodd" d="M50.4994 1.85005L47.6203 3.66181L47.7053 17.9265L47.79 32.1912L48.5497 33.8106C49.4303 35.6877 50.735 37.0909 52.4565 38.0115L53.6724 38.6618L91.54 38.7398L129.408 38.8177V35.578V32.3383H122.746H119.453H109.499L110.105 30.6471C110.649 29.1277 110.721 28.1239 110.819 20.7615C110.881 16.1053 110.816 12.613 110.668 12.6733C110.526 12.7315 108.993 13.3565 107.261 14.0618L104.114 15.3442V21.8671C104.114 28.0518 104.079 28.4574 103.452 29.6853C102.334 31.8733 101.709 32.1465 97.5103 32.2865L93.8559 32.408L94.3132 30.9762C94.665 29.8742 94.805 27.5959 94.9203 21.0883C95.0029 16.4377 95.015 12.6324 94.9468 12.6324C94.8785 12.6324 93.3729 13.215 91.6006 13.9274L88.3782 15.2221L88.2312 21.9421C88.1009 27.8968 88.0171 28.7948 87.4959 29.83C86.54 31.7289 85.4321 32.1733 81.3491 32.2968C78.0312 32.3974 77.8612 32.3745 78.0762 31.8559C78.6997 30.3521 78.8259 28.2971 78.7523 20.83L78.6723 12.7042L75.5841 13.9689L72.4959 15.2336L72.3394 21.8006C72.1744 28.7359 72.0091 29.6259 70.6174 31.0774C69.5568 32.1836 67.9271 32.4236 62.5885 32.2606C57.0147 32.0906 55.8838 31.7577 54.8571 29.9853C54.2832 28.995 54.2574 28.4039 54.1741 14.4706C54.1079 3.39034 54.0041 -0.00848051 53.7329 0.0118136C53.5379 0.0262254 52.0827 0.853578 50.4994 1.85005ZM166.54 2.88534C163.594 5.69005 163.048 6.45593 163.99 6.45593C164.246 6.45593 165.484 7.51417 166.742 8.8077L169.028 11.1595L171.418 9.38005C175.63 6.24476 175.715 5.60181 172.358 2.29446C171.069 1.02446 169.911 -0.00818638 169.785 4.89171e-05C169.658 0.00799009 168.198 1.30652 166.54 2.88534ZM26.7194 3.12858C23.9479 5.85152 23.33 6.75005 24.2288 6.75005C24.4538 6.75005 25.6491 7.77093 26.8847 9.01858C29.4532 11.6121 29.0118 11.6103 32.3076 9.04093C34.5144 7.32034 35.1262 6.43887 34.8659 5.35505C34.6715 4.54593 30.5176 0.279461 29.9241 0.279461C29.7565 0.279461 28.3144 1.56152 26.7194 3.12858ZM54.5547 30.1324C55.4847 31.9921 56.5176 32.3351 61.8144 32.5418C67.5138 32.7645 69.4112 32.5448 70.6271 31.5215C72.2794 30.1312 72.4506 29.323 72.6282 22.0645L72.79 15.4668L75.5629 14.3439C77.0882 13.7259 78.3785 13.2206 78.4306 13.2206C78.6865 13.2206 78.4732 29.1012 78.2038 30.1324C78.0344 30.7795 77.8206 31.623 77.7282 32.0068L77.5606 32.7045L81.3609 32.5862C85.757 32.4492 86.745 32.0703 87.7612 30.1324C88.32 29.0668 88.3921 28.3233 88.5253 22.2445L88.6723 15.5333L91.4665 14.3789C93.0032 13.7439 94.3597 13.2236 94.4812 13.2227C94.8009 13.2198 94.7479 25.2795 94.4156 28.1698C94.2609 29.5165 93.9309 31.0259 93.6826 31.5236C93.4344 32.0215 93.2312 32.4874 93.2312 32.5595C93.2312 32.6312 94.9847 32.6442 97.1282 32.5877C101.539 32.4718 102.586 32.1003 103.662 30.2692C104.204 29.3459 104.274 28.6048 104.408 22.3836L104.555 15.5171L107.017 14.5245C108.371 13.9783 109.739 13.4492 110.057 13.3483C110.624 13.1683 110.633 13.318 110.518 20.9133C110.411 27.8983 110.337 28.85 109.761 30.5736C109.409 31.625 109.119 32.5159 109.117 32.5533C109.115 32.5906 112.082 32.6568 115.709 32.7003L122.305 32.7795L120.615 35.5736L118.924 38.3677L86.8929 38.4424C51.6682 38.5248 53.3697 38.6059 51.1027 36.7374C50.4853 36.2283 49.6071 35.0033 49.0532 33.8789L48.0841 31.9106L48 17.905L47.9156 3.89946L50.7941 2.13887L53.6724 0.378284L53.8194 14.6671C53.9588 28.205 53.9974 29.0177 54.5547 30.1324ZM33.1435 3.60064C34.8206 5.42005 34.9521 6.01211 33.9215 7.10623C33.4609 7.59534 32.235 8.64328 31.1974 9.43505L29.3103 10.875L27.0797 8.71064C25.8527 7.52034 24.6641 6.48652 24.4385 6.41358C24.1753 6.32799 25.0685 5.26828 26.9321 3.45534L29.8362 0.630637L30.8912 1.46593C31.4712 1.92564 32.4847 2.88623 33.1435 3.60064ZM172.223 2.71593C173.795 4.2574 174.408 5.06623 174.408 5.59946C174.408 6.42476 173.456 7.42475 170.787 9.40417L169.077 10.6715L166.986 8.5674C165.835 7.41005 164.623 6.37711 164.291 6.27181C163.767 6.10564 164.076 5.71711 166.621 3.33623C168.235 1.82681 169.664 0.58799 169.797 0.582696C169.93 0.577696 171.022 1.5377 172.223 2.71593ZM14.4077 4.12417C11.5294 6.86534 11.3594 7.08975 11.9077 7.4224C12.2312 7.61887 13.4862 8.74623 14.6965 9.92799C17.2409 12.4121 16.9803 12.4148 20.1724 9.87123C22.8479 7.73946 23.1053 7.20387 22.2574 5.53299C21.6868 4.40858 18.285 1.14446 17.7132 1.1724C17.5938 1.17828 16.1062 2.50681 14.4077 4.12417ZM20.2921 3.77064C23.3091 6.73446 23.2035 7.2327 18.8915 10.3671L17.0521 11.7045L14.9209 9.55681C13.7488 8.37534 12.5915 7.33358 12.3488 7.24152C12.0335 7.12211 12.7035 6.31476 14.6974 4.41211C16.2318 2.94799 17.6553 1.75005 17.8612 1.75005C18.0668 1.75005 19.1606 2.65917 20.2921 3.77064ZM9.9763e-06 12.5374C0.00236292 12.6703 1.31413 13.5062 2.91501 14.3948L5.8253 16.01L5.93236 21.4536C6.03472 26.6568 6.07354 26.9621 6.81207 28.3677C7.7703 30.1915 8.56383 30.9442 10.4406 31.8092C11.8777 32.4715 12.1371 32.4871 23.1403 32.5748C35.1194 32.6703 36.0727 32.5851 37.6247 31.2792C39.1659 29.9824 39.4077 28.4827 39.4077 20.2259V12.9265L41.0988 12.9233C42.0288 12.9215 43.2865 12.838 43.8929 12.7377L44.9959 12.5553V22.2465C44.9959 32.9727 44.8691 33.9451 43.2112 35.9498C42.0635 37.3374 40.3282 38.2418 38.2312 38.545L36.6135 38.7789L38.4518 38.6748C41.6038 38.4959 44.1153 36.4074 44.9979 33.2309C45.1606 32.6456 45.2874 27.8542 45.2882 22.268L45.29 12.3448L42.5694 12.5133C41.0729 12.6059 39.6835 12.7327 39.4812 12.795C39.2 12.8815 39.1132 14.6233 39.1118 20.1968C39.1109 24.3751 38.9785 27.9595 38.8018 28.5962C38.3582 30.193 37.0012 31.6065 35.5147 32.0203C34.6212 32.2692 31.0897 32.3439 23.2312 32.2803C12.3427 32.1924 12.1821 32.1824 10.6556 31.4924C9.80501 31.108 8.69648 30.3236 8.19236 29.7489C6.54648 27.8745 6.36324 27.0915 6.18707 21.1815L6.0253 15.76L4.70177 14.9892C1.0906 12.8865 -0.00381355 12.3156 9.9763e-06 12.5374ZM164.732 12.793C162.267 13.328 158.429 15.2483 156.684 16.8203L155.293 18.0736L156.836 20.4936C157.684 21.8248 158.505 22.9165 158.66 22.92C158.815 22.9236 159.411 22.4712 159.984 21.915C160.556 21.3586 161.844 20.4986 162.846 20.0039C167.813 17.5495 173.18 18.2077 176.725 21.7062C179.026 23.9774 180.186 26.6718 180.699 30.9412L180.867 32.3383L162.858 32.3471L144.849 32.3556L143.83 34.1342C142.861 35.8256 141.611 37.1765 139.993 38.2789C139.301 38.7503 140.612 38.7789 163.599 38.7936L187.937 38.8089L187.934 36.8236C187.93 33.5198 187.391 28.4803 186.791 26.1324C184.535 17.3121 178.1 12.3012 169.114 12.3668C167.739 12.3768 165.767 12.5686 164.732 12.793ZM173.938 13.2133C180.382 14.8615 184.724 19.3886 186.464 26.273C187.087 28.7371 187.642 33.6389 187.643 36.6765L187.643 38.5148H164.107H140.571L142.122 36.9624C142.975 36.1089 144.003 34.7853 144.407 34.0212L145.142 32.6324H163.16H181.177L180.997 30.9412C180.396 25.3015 178.37 21.6589 174.781 19.7671C169.957 17.2245 163.746 17.9848 159.734 21.6089L158.611 22.6236L157.219 20.3486L155.827 18.0736L157.021 17.0112C161.165 13.325 168.2 11.7456 173.938 13.2133ZM0.0358923 25.1442C-0.042343 28.615 1.4106 32.3103 3.78824 34.688C6.24942 37.1492 11.0209 38.8545 15.2009 38.7668C17.1991 38.725 17.1982 38.7248 14.5182 38.5045C5.78295 37.7865 1.06942 33.5468 0.305598 25.7206L0.0761864 23.3677L0.0358923 25.1442Z" fill="black"/>
<path d="M54.5547 30.1324C55.4847 31.9921 56.5176 32.3351 61.8144 32.5418C67.5138 32.7645 69.4112 32.5448 70.6271 31.5215C72.2794 30.1312 72.4506 29.323 72.6282 22.0645L72.79 15.4668L75.5629 14.3439C77.0882 13.7259 78.3785 13.2206 78.4306 13.2206C78.6865 13.2206 78.4732 29.1012 78.2038 30.1324C78.0344 30.7795 77.8206 31.623 77.7282 32.0068L77.5606 32.7045L81.3609 32.5862C85.757 32.4492 86.745 32.0703 87.7612 30.1324C88.32 29.0668 88.3921 28.3233 88.5253 22.2445L88.6723 15.5333L91.4665 14.3789C93.0032 13.7439 94.3597 13.2236 94.4812 13.2227C94.8009 13.2198 94.7479 25.2795 94.4156 28.1698C94.2609 29.5165 93.9309 31.0259 93.6826 31.5236C93.4344 32.0215 93.2312 32.4874 93.2312 32.5595C93.2312 32.6312 94.9847 32.6442 97.1282 32.5877C101.539 32.4718 102.586 32.1003 103.662 30.2692C104.204 29.3459 104.274 28.6048 104.408 22.3836L104.555 15.5171L107.017 14.5245C108.371 13.9783 109.739 13.4492 110.057 13.3483C110.624 13.1683 110.633 13.318 110.518 20.9133C110.411 27.8983 110.337 28.85 109.761 30.5736C109.409 31.625 109.119 32.5159 109.117 32.5533C109.115 32.5906 112.082 32.6568 115.709 32.7003L122.305 32.7795L120.615 35.5736L118.924 38.3677L86.8929 38.4424C51.6682 38.5248 53.3697 38.6059 51.1027 36.7374C50.4853 36.2283 49.6071 35.0033 49.0532 33.8789L48.0841 31.9106L48 17.905L47.9156 3.89946L50.7941 2.13887L53.6724 0.378284L53.8194 14.6671C53.9588 28.205 53.9974 29.0177 54.5547 30.1324Z" fill="black"/>
<path d="M173.938 13.2133C180.382 14.8615 184.724 19.3886 186.464 26.273C187.087 28.7371 187.642 33.6389 187.643 36.6765L187.643 38.5148H164.107H140.571L142.122 36.9624C142.975 36.1089 144.003 34.7853 144.407 34.0212L145.142 32.6324H163.16H181.177L180.997 30.9412C180.396 25.3015 178.37 21.6589 174.781 19.7671C169.957 17.2245 163.746 17.9848 159.734 21.6089L158.611 22.6236L157.219 20.3486L155.827 18.0736L157.021 17.0112C161.165 13.325 168.2 11.7456 173.938 13.2133Z" fill="black"/>
<path d="M172.223 2.71593C173.795 4.2574 174.408 5.06623 174.408 5.59946C174.408 6.42476 173.456 7.42475 170.787 9.40417L169.077 10.6715L166.986 8.5674C165.835 7.41005 164.623 6.37711 164.291 6.27181C163.767 6.10564 164.076 5.71711 166.621 3.33623C168.235 1.82681 169.664 0.58799 169.797 0.582696C169.93 0.577696 171.022 1.5377 172.223 2.71593Z" fill="black"/>
<path d="M2.91501 14.3948C1.31413 13.5062 0.00236292 12.6703 9.9763e-06 12.5374L0.0761864 23.3677L0.305598 25.7206C1.06942 33.5468 5.78295 37.7865 14.5182 38.5045C17.1982 38.7248 17.1991 38.725 15.2009 38.7668L36.6135 38.7789L38.2312 38.545C40.3282 38.2418 42.0635 37.3374 43.2112 35.9498C44.8691 33.9451 44.9959 32.9727 44.9959 22.2465V12.5553L43.8929 12.7377C43.2865 12.838 42.0288 12.9215 41.0988 12.9233L39.4077 12.9265V20.2259C39.4077 28.4827 39.1659 29.9824 37.6247 31.2792C36.0727 32.5851 35.1194 32.6703 23.1403 32.5748C12.1371 32.4871 11.8777 32.4715 10.4406 31.8092C8.56383 30.9442 7.7703 30.1915 6.81207 28.3677C6.07354 26.9621 6.03472 26.6568 5.93236 21.4536L5.8253 16.01L2.91501 14.3948Z" fill="black"/>
<path d="M20.2921 3.77064C23.3091 6.73446 23.2035 7.2327 18.8915 10.3671L17.0521 11.7045L14.9209 9.55681C13.7488 8.37534 12.5915 7.33358 12.3488 7.24152C12.0335 7.12211 12.7035 6.31476 14.6974 4.41211C16.2318 2.94799 17.6553 1.75005 17.8612 1.75005C18.0668 1.75005 19.1606 2.65917 20.2921 3.77064Z" fill="black"/>
<path d="M33.1435 3.60064C34.8206 5.42005 34.9521 6.01211 33.9215 7.10623C33.4609 7.59534 32.235 8.64328 31.1974 9.43505L29.3103 10.875L27.0797 8.71064C25.8527 7.52034 24.6641 6.48652 24.4385 6.41358C24.1753 6.32799 25.0685 5.26828 26.9321 3.45534L29.8362 0.630637L30.8912 1.46593C31.4712 1.92564 32.4847 2.88623 33.1435 3.60064Z" fill="black"/>
<path d="M117.864 20.5684C117.742 20.5711 117.643 16.0072 117.643 10.4264V0.279297H123.525H129.408V3.80871V7.33812H127.055H124.702V9.96106V12.5843L123.694 13.2066C122.074 14.2087 119.576 17.1178 118.801 18.9078C118.407 19.8184 117.985 20.5658 117.864 20.5684Z" fill="#FCB62E"/>
<path d="M130.878 7.33812V3.80871V0.279297H137.055H143.231V3.80871V7.33812H137.055H130.878Z" fill="#FCB62E"/>
<path d="M118.531 23.1884C119.463 18.2775 123.612 13.7231 128.119 12.6652C128.747 12.5178 129.294 12.384 129.334 12.3675C129.374 12.3514 129.403 13.8931 129.397 15.794L129.386 19.2499L128.09 20.0708C127.13 20.679 126.561 21.3578 125.895 22.6914C125.401 23.6811 124.996 24.8669 124.996 25.3264V26.1616H121.614C117.746 26.1616 117.933 26.3422 118.531 23.1884Z" fill="#FCB62E"/>
<path d="M130.878 19.1028V15.7205V12.3381H132.323C135.484 12.3381 139.195 14.1216 141.601 16.7981C146.154 21.8625 145.97 29.7381 141.179 34.8037C138.905 37.2078 136.205 38.4822 132.422 38.9372L130.878 39.1231V35.7581V32.3934L132.359 32.1896C136.639 31.6011 139.417 26.8343 137.672 23.0734C136.627 20.8202 134.138 19.1028 131.917 19.1028H130.878Z" fill="#FCB62E"/>
</svg>
