<svg width="119" height="40" viewBox="0 0 119 40" fill="none" xmlns="http://www.w3.org/2000/svg">
<g clip-path="url(#clip0_514_11)">
<path fill-rule="evenodd" clip-rule="evenodd" d="M93.9396 0.255019C93.2126 0.376911 92.2396 0.619884 91.7774 0.795019C91.3155 0.970154 90.3252 1.38934 89.5774 1.72664C88.8293 2.06367 87.6469 2.70123 86.9501 3.1434C86.2531 3.58529 85.2231 4.36232 84.6615 4.86988C84.0998 5.37745 83.1344 6.39826 82.5163 7.13826C81.8982 7.87799 81.035 9.0961 80.5977 9.84475C80.1607 10.5934 79.5431 11.9015 79.225 12.7512C78.9071 13.6012 78.4631 15.1777 78.2382 16.2547C78.0136 17.3318 77.8339 19.0645 77.839 20.105C77.8442 21.1456 78.0088 22.7266 78.2047 23.6185C78.4007 24.5104 78.7258 25.7875 78.9269 26.4564C79.128 27.1253 79.7047 28.4631 80.2085 29.4293C80.7123 30.3956 81.4396 31.5207 81.8247 31.9293C82.2958 32.4291 82.7961 32.6712 83.3528 32.6685C83.8082 32.6661 84.3144 32.575 84.478 32.4658C84.6415 32.3566 84.9255 31.9823 85.109 31.6339C85.2947 31.2818 85.3652 30.6818 85.2682 30.2826C85.1723 29.8877 84.8023 29.1191 84.4463 28.5745C84.0901 28.0302 83.4944 26.8353 83.1223 25.9196C82.7501 25.0042 82.2982 23.2907 82.1177 22.1123C81.8593 20.4231 81.8607 19.5077 82.1242 17.7856C82.3082 16.5842 82.7766 14.851 83.165 13.9342C83.5534 13.0175 84.2985 11.6591 84.8204 10.9158C85.3426 10.1726 86.2844 9.05853 86.9139 8.44015C87.5434 7.82177 88.8885 6.82529 89.9034 6.22556C90.918 5.62583 92.2955 4.95718 92.9644 4.73961C93.6334 4.52205 95.0469 4.19448 96.1055 4.01178C97.6328 3.74799 98.4144 3.7488 99.8893 4.01529C100.912 4.19988 102.259 4.51691 102.883 4.72015C103.507 4.92313 104.573 5.35015 105.251 5.66907C106.306 6.16448 106.599 6.2015 107.269 5.92394C107.714 5.73934 108.201 5.24313 108.395 4.77448C108.678 4.09124 108.669 3.82853 108.345 3.24367C108.129 2.85529 107.348 2.23151 106.607 1.85772C105.867 1.48394 104.836 1.03556 104.316 0.861234C103.796 0.68691 102.648 0.41502 101.766 0.257182C100.884 0.099074 99.0599 -0.0157929 97.712 0.0017747C96.3644 0.019072 94.6669 0.133127 93.9396 0.255019ZM25.9374 7.98529C25.7144 8.07042 25.3801 8.33178 25.1942 8.5661C24.9401 8.88637 24.8563 11.0918 24.8563 17.4539V25.9158H20.5523H16.2482L16.1604 20.578C16.0766 15.4926 16.0396 15.1696 15.3723 13.7472C14.9871 12.9264 14.1358 11.7402 13.4804 11.1112C12.6766 10.3402 11.5853 9.69259 10.1266 9.12096C8.40795 8.44718 7.42904 8.24637 5.35444 8.1407L2.74417 8.00826L2.28444 8.89718C1.86849 9.70177 1.86336 9.86772 2.23201 10.6407C2.60606 11.425 2.80282 11.5234 4.62633 11.8385C5.71903 12.0275 7.14444 12.3566 7.7939 12.5702C8.44336 12.7837 9.22471 13.092 9.52985 13.2553C9.83525 13.4188 10.4328 13.9323 10.8577 14.3964C11.2825 14.8604 11.8088 15.8399 12.0271 16.5731C12.2982 17.4837 12.4239 19.1742 12.4239 21.911V25.9158H7.13579C3.6466 25.9158 1.64903 26.0223 1.26309 26.2288C0.941467 26.401 0.52363 26.6964 0.334981 26.8853C0.146062 27.0739 -0.00475039 27.5718 0.000114472 27.9912C0.00470907 28.4104 0.192547 28.9969 0.417141 29.2942C0.820925 29.8285 1.1839 29.8356 32.0563 29.9056C53.0412 29.9534 63.6296 29.8845 64.3307 29.6956C64.9044 29.541 65.8936 29.0185 66.5285 28.5342C67.1631 28.0502 68.0501 27.0599 68.4993 26.3339L69.3158 25.0137L69.4017 17.0923L69.4874 9.17096L68.8058 8.48934C68.428 8.11151 67.812 7.80772 67.4239 7.80772C67.0388 7.80772 66.4253 8.10637 66.0604 8.47124L65.3969 9.13448V16.6064V24.078L64.478 24.9969L63.559 25.9158H58.118H52.6766L53.7423 24.4969C54.3285 23.7166 55.1128 22.4091 55.485 21.5915C55.8574 20.7739 56.3169 19.6185 56.5063 19.0239C56.6958 18.4293 56.8453 16.9091 56.8388 15.6456C56.8293 13.8229 56.698 13.0769 56.2031 12.0345C55.8261 11.2402 55.1423 10.4029 54.4744 9.91745C53.8669 9.47556 52.9442 8.92961 52.4239 8.70367C51.9036 8.47799 50.4612 8.17637 49.2182 8.03367C47.732 7.86286 46.1871 7.86826 44.705 8.04961C43.2926 8.22232 41.9517 8.57826 41.1136 9.00313C40.378 9.3761 39.3996 10.1374 38.9396 10.6956C38.4798 11.2534 37.9201 12.3404 37.6961 13.1112C37.472 13.882 37.2901 15.102 37.292 15.8223C37.2936 16.5426 37.4723 17.801 37.6885 18.6185C37.9047 19.4361 38.518 20.9669 39.0512 22.0202C39.5844 23.0734 40.3788 24.3277 40.8169 24.8072C41.2547 25.2866 41.6131 25.7323 41.6131 25.7974C41.6131 25.8626 38.6942 25.9158 35.1266 25.9158H28.6401V17.3002C28.6401 10.412 28.5671 8.62421 28.2766 8.38286C28.0766 8.21691 27.5596 8.02475 27.128 7.95583C26.6961 7.88691 26.1604 7.90015 25.9374 7.98529ZM95.3698 8.08151C94.6861 8.19718 93.4117 8.63907 92.538 9.0634C91.6642 9.48772 90.2607 10.5104 89.419 11.3361C88.4298 12.3069 87.6061 13.4531 87.0882 14.5793C86.6477 15.5374 86.1317 17.0785 85.9415 18.0042C85.7344 19.0134 85.6701 20.2477 85.7815 21.0866C85.8836 21.8564 86.2188 23.2275 86.5263 24.1334C86.8342 25.0393 87.5615 26.4199 88.1431 27.2012C88.7247 27.9826 89.7955 29.092 90.5228 29.6669L91.845 30.7118L90.8507 31.7677C90.3036 32.3485 89.2177 33.5488 88.4374 34.435C87.6571 35.3212 87.0185 36.2083 87.0185 36.4058C87.0185 36.6034 87.1707 36.9129 87.3563 37.0937C87.5423 37.2742 88.3758 37.742 89.2088 38.1331C90.0417 38.5242 91.3796 39.0431 92.1817 39.2864C92.9839 39.5293 94.9263 39.7996 96.4982 39.8869C98.2012 39.9818 100.255 39.9145 101.578 39.721C102.845 39.5358 104.754 38.9966 106.018 38.4672C107.237 37.9561 108.588 37.2339 109.02 36.862C109.452 36.4904 109.879 36.1861 109.968 36.1861C110.058 36.1861 110.747 35.6085 111.499 34.9023C112.251 34.1961 113.345 33.0047 113.929 32.2545C114.513 31.5042 115.345 30.1664 115.776 29.2815C116.208 28.3966 116.653 27.4293 116.766 27.132C116.878 26.8347 117.056 26.3483 117.161 26.051C117.266 25.7537 117.52 24.6591 117.726 23.6185C117.931 22.578 118.099 20.9137 118.099 19.9199C118.099 18.9264 117.923 17.2729 117.707 16.2456C117.491 15.218 117.059 13.7204 116.748 12.9169C116.437 12.1137 115.991 11.0412 115.756 10.5339C115.522 10.0266 115.023 9.32745 114.648 8.97988C114.273 8.63259 113.675 8.34826 113.318 8.34826C112.961 8.34826 112.371 8.64691 112.006 9.01178C111.641 9.37664 111.343 9.94232 111.343 10.2693C111.343 10.5961 111.69 11.605 112.115 12.5112C112.54 13.4175 113.11 14.828 113.383 15.6456C113.735 16.7029 113.879 17.9512 113.883 19.9699C113.886 21.855 113.737 23.3066 113.438 24.2942C113.19 25.1118 112.708 26.328 112.366 26.9969C112.024 27.6658 111.357 28.7718 110.884 29.4545C110.411 30.1375 109.326 31.3231 108.474 32.0896C107.622 32.8564 106.846 33.4834 106.749 33.4834C106.652 33.4834 105.792 32.6047 104.836 31.5307C103.881 30.4569 102.717 29.1529 102.249 28.6331L101.399 27.6883L99.6144 27.9939C98.2439 28.2288 97.5007 28.222 96.4107 27.9656C95.6301 27.7818 94.6266 27.4402 94.1807 27.2066C93.7347 26.9729 92.9869 26.435 92.5188 26.011C92.0507 25.5869 91.3282 24.6929 90.9134 24.0239C90.2763 22.9969 90.1409 22.4402 90.0423 20.4453C89.9371 18.3145 89.9947 17.9418 90.6312 16.6407C91.0193 15.8477 91.855 14.7191 92.4885 14.1331C93.1217 13.5472 94.1839 12.8269 94.8485 12.5323C95.7207 12.1458 96.6226 12.0012 98.0917 12.0129C99.662 12.0253 100.404 12.171 101.343 12.6515C102.012 12.9939 103.106 13.8502 103.775 14.5542C104.491 15.3075 105.2 16.415 105.499 17.2461C105.887 18.3266 105.976 19.1329 105.876 20.6799C105.805 21.7918 105.607 22.841 105.437 23.0112C105.266 23.1818 105.127 23.8612 105.127 24.5212C105.127 25.3469 105.274 25.8331 105.6 26.0802C105.86 26.2777 106.52 26.4431 107.068 26.4477C107.855 26.4545 108.169 26.3012 108.571 25.7131C108.851 25.3045 109.255 24.4226 109.468 23.7537C109.693 23.0493 109.856 21.4569 109.856 19.9699C109.856 18.4753 109.693 16.8942 109.466 16.1861C109.252 15.5172 108.67 14.3229 108.174 13.532C107.677 12.7412 106.758 11.6185 106.131 11.0369C105.504 10.4556 104.323 9.62313 103.505 9.18745C102.687 8.75178 101.297 8.26313 100.415 8.1015C99.5328 7.93988 98.3166 7.82204 97.712 7.83961C97.1077 7.85691 96.0536 7.96583 95.3698 8.08151ZM48.9326 11.8918C49.7026 12.0569 50.7466 12.4364 51.2528 12.735C51.7593 13.0337 52.3515 13.6223 52.569 14.0431C52.7863 14.4637 52.9644 15.3458 52.9644 16.0037C52.9644 16.6612 52.7804 17.7315 52.5555 18.3818C52.3307 19.0323 51.8209 20.1726 51.4228 20.9158C51.025 21.6591 50.5704 22.4093 50.4128 22.5831C50.2555 22.7569 49.4593 23.5853 48.6434 24.4239L47.1604 25.9491L45.6704 24.3666C44.8512 23.4961 43.9493 22.4926 43.6663 22.1364C43.3836 21.7802 42.745 20.6077 42.2474 19.531C41.5585 18.0399 41.3428 17.208 41.3428 16.0429C41.3428 14.9288 41.495 14.2991 41.9023 13.7272C42.2099 13.2953 42.7261 12.8002 43.0493 12.6272C43.3726 12.4542 44.185 12.1612 44.8547 11.9761C45.5244 11.7912 46.4009 11.6291 46.8025 11.6156C47.2039 11.6023 48.1626 11.7266 48.9326 11.8918ZM95.5912 16.3807C95.1777 16.6453 94.5998 17.3564 94.3074 17.9607C94.0147 18.565 93.7753 19.4691 93.7753 19.9699C93.7753 20.4707 94.0207 21.3872 94.3207 22.0066C94.6455 22.6777 95.2271 23.3277 95.7596 23.6145C96.4401 23.981 97.0607 24.0664 98.3615 23.9723C99.9055 23.8604 100.156 23.7553 100.96 22.8769C101.45 22.3426 101.932 21.4699 102.032 20.9377C102.132 20.4053 102.132 19.5345 102.032 19.002C101.932 18.4699 101.446 17.5929 100.951 17.0531C100.108 16.1329 99.9377 16.0666 98.1977 15.9858C96.7723 15.9193 96.1688 16.011 95.5912 16.3807ZM23.2396 32.332C23.0193 32.4185 22.6544 32.6737 22.4288 32.8993C22.1931 33.135 22.0185 33.7893 22.0185 34.4361C22.0185 35.0556 22.1828 35.7604 22.3834 36.0023C22.5842 36.2442 23.1639 36.5199 23.6717 36.6153C24.1926 36.7131 24.9363 36.6472 25.3782 36.4642C25.809 36.2856 26.3082 35.7853 26.4877 35.352C26.7444 34.7318 26.7415 34.3902 26.4736 33.7429C26.2863 33.291 25.8796 32.7437 25.5698 32.5266C25.2598 32.3096 24.699 32.1418 24.3231 32.1534C23.9474 32.165 23.4598 32.2456 23.2396 32.332ZM28.1942 32.4007C27.8747 32.5296 27.4736 33.0588 27.3025 33.5766C27.0536 34.331 27.0709 34.7077 27.3901 35.4712C27.7104 36.2377 27.9785 36.4599 28.7593 36.6064C29.3242 36.7123 30.0525 36.655 30.5015 36.4691C30.9255 36.2934 31.4101 35.848 31.578 35.4793C31.7461 35.111 31.8834 34.5847 31.8834 34.3102C31.8834 34.0356 31.5304 33.4331 31.0993 32.9715C30.5626 32.3969 30.072 32.1375 29.5453 32.1491C29.1217 32.1585 28.5139 32.2718 28.1942 32.4007ZM64.1417 32.7726C63.5744 33.2607 63.3969 33.6556 63.3969 34.4293C63.3969 35.2137 63.5744 35.598 64.1755 36.115C64.8112 36.6618 65.1501 36.7585 66.0234 36.6412C66.6117 36.5623 67.289 36.3018 67.5288 36.062C67.7969 35.7939 67.9644 35.171 67.9644 34.4423C67.9644 33.5288 67.8161 33.1299 67.315 32.6953C66.9401 32.3702 66.2896 32.132 65.7761 32.132C65.2299 32.132 64.599 32.3793 64.1417 32.7726Z" fill="#7566F0"/>
</g>
<defs>
<clipPath id="clip0_514_11">
<rect width="118.108" height="40" fill="white"/>
</clipPath>
</defs>
</svg>
