<svg width="134" height="40" viewBox="0 0 134 40" fill="none" xmlns="http://www.w3.org/2000/svg">
<g clip-path="url(#clip0_233:46)">
<path d="M127.8 39.9336C128.526 39.9343 129.245 39.792 129.916 39.5149C130.587 39.2378 131.197 38.8312 131.71 38.3185C132.224 37.8057 132.632 37.1967 132.91 36.5263C133.189 35.8559 133.333 35.1373 133.333 34.4113C133.334 33.6854 133.192 32.9665 132.915 32.2955C132.638 31.6246 132.231 31.0148 131.718 30.501C131.205 29.9872 130.596 29.5794 129.926 29.3009C129.256 29.0224 128.537 28.8787 127.811 28.878C126.345 28.8765 124.938 29.4575 123.901 30.4931C122.863 31.5288 122.279 32.9342 122.278 34.4002C122.276 35.8663 122.857 37.2729 123.893 38.3106C124.929 39.3483 126.334 39.9321 127.8 39.9336V39.9336ZM122.267 19.3502H117.544C114.511 19.3502 112.878 21.628 112.878 25.4169V39.1169H103.933V19.3502H100.133C97.0944 19.3502 95.4667 21.628 95.4667 25.4169V39.1169H86.5222V12.0391H95.4667V16.1502C96.9333 12.9613 98.9444 12.0391 101.928 12.0391H112.883V16.1502C114.35 12.9613 116.356 12.0391 119.339 12.0391H122.267V19.3502V19.3502ZM84.5667 27.6891H65.9056C66.3944 30.7225 68.2944 32.4558 71.4944 32.4558C73.8833 32.4558 75.5611 31.4836 76.1056 29.7502L84.0222 31.9725C82.0722 36.6836 77.2444 39.5502 71.4944 39.5502C61.7833 39.5502 57.3333 32.0225 57.3333 25.578C57.3333 19.2447 61.2389 11.6613 70.9444 11.6613C81.2556 11.6613 84.6722 19.3502 84.6722 25.0391C84.6722 26.2836 84.6167 27.0947 84.5611 27.6891H84.5667ZM75.8889 22.4391C75.6667 20.1058 73.9889 17.9391 70.95 17.9391C68.1278 17.9391 66.45 19.1891 65.9056 22.4391H75.8889V22.4391ZM41.7111 39.1113H49.5778L59.3944 12.0336H50.3944L45.6167 27.7947L40.7389 12.0336H31.7778L41.7056 39.1113H41.7111ZM5.04444 39.1113H13.9444V19.3447H22.4111V39.1113H31.25V12.0336H13.9444V10.3558C13.9444 8.51134 15.25 7.37801 17.3111 7.37801H22.4111V0.0668945H15.8333C9.37778 0.0668945 5.03889 4.02245 5.03889 9.8169V12.0391H0V19.3502H5.04444V39.1169V39.1113Z" fill="black"/>
</g>
<defs>
<clipPath id="clip0_233:46">
<rect width="133.333" height="40" fill="white"/>
</clipPath>
</defs>
</svg>
