<svg width="166" height="40" viewBox="0 0 166 40" fill="none" xmlns="http://www.w3.org/2000/svg">
<g clip-path="url(#clip0_233:27)">
<path d="M15.8322 21.3801L23.2339 29.331L31.3988 21.328L33.9325 6.42075L23.9827 5.91323L15.8322 21.3801ZM14.9198 20.4535L22.7555 5.83563L0 4.60591L14.9198 20.4535ZM9.24159 0.000584492L11.166 3.94512L21.7722 4.60591L9.24159 0.000584492ZM30.0727 0.000584492L24.7143 4.83247L33.7268 5.16893L30.0727 0.000584492ZM12.3345 39.9998L22.3602 30.1981L16.3259 23.7229L12.3345 39.9998ZM31.5906 0.000584492L35.2536 5.13784L53.7871 0.000584492" fill="#61AFE4"/>
<path d="M156.544 14.9549L154.166 29.9122C154.12 30.2069 153.859 30.5001 153.539 30.5001H149.533C149.212 30.5001 148.992 30.2069 149.039 29.9129L150.617 20.0175L156.545 14.9561L156.544 14.9549ZM144.253 21.2585C144.508 19.6559 144.019 18.6942 142.682 18.6942C141.402 18.6942 140.555 19.6565 140.301 21.2585L140.288 21.3385H144.24L144.253 21.2585ZM148.146 24.17H139.84L139.832 24.223C139.607 25.6387 140.056 26.5194 142.005 26.5194C143.421 26.5194 146.059 26.3869 147.113 26.3055C147.545 26.278 147.692 26.358 147.629 26.759L147.247 29.1636C147.181 29.5908 147.044 29.7774 146.595 29.9119C144.798 30.4734 142.912 30.74 140.669 30.74C137.063 30.74 134.026 28.8434 134.833 23.7424L135.113 21.9797C135.857 17.2792 138.987 14.715 143.367 14.715C148.04 14.715 149.734 17.679 149.053 21.979L148.798 23.5828C148.743 23.929 148.464 24.1689 148.144 24.1689L148.146 24.17ZM132.47 30.3132C131.529 30.5267 130.319 30.74 128.745 30.74C124.658 30.74 122.776 28.1229 123.47 23.7424L123.788 21.7395C124.478 17.3858 127.197 14.715 131.283 14.715C132.859 14.715 134.156 14.9543 134.874 15.1407C135.208 15.2215 135.374 15.3554 135.319 15.7026L134.841 18.7208C134.79 19.0416 134.592 19.2815 134.2 19.2279C133.304 19.1488 132.467 19.0415 131.158 19.0415C130.01 19.0415 129.228 19.7632 128.915 21.7403L128.598 23.742C128.285 25.719 128.843 26.4128 129.991 26.4128C131.299 26.4128 132.162 26.3599 133.088 26.2526C133.497 26.2 133.623 26.4128 133.569 26.7601L133.094 29.752C133.039 30.1002 132.831 30.2328 132.47 30.3135L132.47 30.3132ZM120.622 30.5001H116.617C116.296 30.5001 116.076 30.2069 116.122 29.9129L117.556 20.8579C117.78 19.4425 117.398 18.989 116.196 18.989C115.582 18.989 114.769 19.2285 114.105 19.5498L112.464 29.9129C112.417 30.2069 112.157 30.5001 111.836 30.5001H107.831C107.509 30.5001 107.29 30.2069 107.336 29.9129L109.62 15.4897C109.667 15.1956 109.944 14.9549 110.239 14.9549H113.95C114.245 14.9549 114.447 15.195 114.4 15.4897L114.303 16.1035C115.887 15.035 117.43 14.7409 118.926 14.7409C123.118 14.7409 123.188 17.679 122.684 20.8569L121.25 29.9122C121.203 30.2069 120.943 30.5005 120.622 30.5005V30.5001ZM101.785 24.0634H100.477C99.1417 24.0634 98.54 24.4906 98.3626 25.6116L98.3201 25.8794C98.1761 26.7879 98.7481 27.0548 99.4954 27.0548C100.137 27.0548 100.887 26.8667 101.376 26.6546L101.785 24.0634V24.0634ZM105.199 30.5001H101.487C101.194 30.5001 100.991 30.2602 101.038 29.9659L101.127 29.405C99.9935 30.1528 98.5654 30.74 97.0967 30.74C94.987 30.74 92.7161 29.5649 93.2867 25.9594L93.3375 25.6387C93.8451 22.4336 96.4576 21.2852 100.917 21.2852H102.066L102.189 20.5107C102.396 19.2026 102.006 18.9624 100.671 18.9624C99.1754 18.9624 96.7506 19.0952 95.9939 19.1494C95.5363 19.1759 95.4412 18.9354 95.4908 18.6147L95.9018 16.0246C95.9655 15.6241 96.2005 15.4909 96.5379 15.3829C97.4611 15.1165 99.8169 14.7415 101.527 14.7415C105.4 14.7415 108.01 16.1312 107.316 20.5114L105.819 29.9662C105.772 30.2606 105.493 30.5005 105.199 30.5005L105.199 30.5001ZM91.0056 30.5001H86.973C86.6791 30.5001 86.4324 30.2069 86.479 29.9129L89.5714 10.3878C89.6176 10.0947 89.9494 9.85408 90.2428 9.85408H94.2762C94.57 9.85408 94.772 10.0937 94.7254 10.3872L91.633 29.9122C91.5867 30.2054 91.2998 30.4994 91.0063 30.4994L91.0056 30.5001ZM81.6923 21.2585C81.9463 19.6559 81.4577 18.6942 80.1228 18.6942C78.841 18.6942 77.9937 19.6565 77.7405 21.2585L77.728 21.3385H81.6794L81.6923 21.2585ZM85.585 24.17H77.2791L77.2715 24.223C77.0471 25.6387 77.4956 26.5194 79.4446 26.5194C80.8606 26.5194 83.498 26.3869 84.5527 26.3055C84.9841 26.278 85.1324 26.358 85.0687 26.759L84.6884 29.1636C84.6206 29.5908 84.4837 29.7774 84.0356 29.9119C82.2375 30.4734 80.3529 30.74 78.1094 30.74C74.504 30.74 71.4662 28.8434 72.2741 23.7424L72.5535 21.9797C73.2981 17.2792 76.4284 14.715 80.8082 14.715C85.4823 14.715 87.1754 17.679 86.4949 21.979L86.2417 23.5828C86.1863 23.929 85.9073 24.1689 85.5869 24.1689L85.585 24.17ZM66.9108 21.2585C67.1652 19.6559 66.6757 18.6942 65.3401 18.6942C64.0584 18.6942 63.2122 19.6565 62.9586 21.2585L62.9464 21.3385H66.8987L66.9112 21.2585H66.9108ZM70.8027 24.17H62.4968L62.4888 24.223C62.2644 25.6387 62.7129 26.5194 64.6623 26.5194C66.0779 26.5194 68.7157 26.3869 69.77 26.3055C70.2015 26.278 70.3486 26.358 70.2845 26.759L69.9046 29.1636C69.8371 29.5908 69.6999 29.7774 69.2522 29.9119C67.4537 30.4734 65.5691 30.74 63.3255 30.74C59.7202 30.74 56.6828 28.8434 57.4906 23.7424L57.7697 21.9797C58.5135 17.2792 61.6434 14.715 66.0237 14.715C70.6977 14.715 72.3908 17.679 71.71 21.979L71.456 23.5828C71.4006 23.929 71.1212 24.1689 70.8012 24.1689L70.8027 24.17ZM57.3837 18.9349H57.0107C55.862 18.9349 54.7417 19.0952 53.8421 19.5487L52.2005 29.9119C52.1539 30.2066 51.8935 30.4994 51.5731 30.4994H47.567C47.2463 30.4994 47.0264 30.2066 47.0727 29.9122L49.3568 15.4903C49.4035 15.1956 49.6017 14.9549 49.9759 14.9549H53.8212C54.1954 14.9549 54.3345 15.0888 54.2709 15.4897L54.1696 16.13C55.5704 14.8748 56.5531 14.7409 57.9687 14.7409C58.4225 14.7409 58.4854 14.8477 58.418 15.2757L57.9016 18.5339C57.8516 18.8547 57.7314 18.9349 57.3841 18.9349H57.3837ZM47.2531 18.7478H45.2234L43.4461 29.9659C43.3999 30.2602 43.1216 30.5001 42.8266 30.5001H38.7679C38.4737 30.5001 38.272 30.2602 38.3182 29.9659L40.8101 14.2333C41.4406 10.2545 43.4491 9.3725 46.2 9.3725C47.0545 9.3725 47.9499 9.45321 48.6498 9.58651C48.9618 9.64011 49.1726 9.82713 49.1256 10.1206L48.7233 12.6589C48.6771 12.952 48.4026 13.166 48.0819 13.166H46.9612C46.2936 13.166 46.0642 13.4326 45.938 14.2344L45.8235 14.9549H47.8529C48.1471 14.9549 48.3491 15.195 48.3025 15.4897L47.8715 18.2136C47.8237 18.5081 47.545 18.7478 47.252 18.7478H47.2531" fill="#191E26"/>
<path d="M157.91 14.955L157.089 20.0869L165.898 14.955" fill="#61AFE4"/>
</g>
<defs>
<clipPath id="clip0_233:27">
<rect width="165.899" height="40" fill="white"/>
</clipPath>
</defs>
</svg>
