<svg width="137" height="40" viewBox="0 0 137 40" fill="none" xmlns="http://www.w3.org/2000/svg">
<path fill-rule="evenodd" clip-rule="evenodd" d="M20.777 0.797921L19.8488 1.59584L19.6834 15.1605L19.518 28.7252L18.511 30.1589C17.9569 30.9476 16.8404 31.9595 16.0299 32.4078C15.0063 32.9735 14.0503 33.2206 12.9017 33.2156C11.9811 33.2117 10.6806 32.9354 9.96872 32.5927C9.26508 32.254 8.26768 31.3945 7.75194 30.6823C7.23588 29.9703 6.71716 28.7414 6.59873 27.9511C6.47368 27.1181 6.54812 26.0145 6.77638 25.3237C6.9924 24.6684 7.5475 23.6832 8.00965 23.1341C8.47179 22.5849 9.38914 21.8638 10.0488 21.532C10.7081 21.1998 11.9407 20.8273 12.7876 20.7036C13.7162 20.5683 14.6679 20.1637 15.186 19.6837C15.842 19.0757 16.0444 18.5672 16.0444 17.5271C16.0444 16.7788 15.8913 15.88 15.7037 15.53C15.5165 15.1797 14.8932 14.6504 14.3186 14.3533C13.5273 13.9441 12.7866 13.8624 11.2682 14.0166C9.96475 14.1492 8.4311 14.6289 6.88588 15.3881C5.34462 16.145 4.02037 17.105 3.11791 18.1193C2.35307 18.9797 1.33847 20.5021 0.863422 21.5029C0.088327 23.1364 0 23.711 0 27.1267C0 30.666 0.0664934 31.0627 0.956381 32.819C1.48237 33.8574 2.59887 35.4026 3.43748 36.2528C4.27609 37.1033 5.92983 38.2632 7.11248 38.8308C9.1182 39.7935 9.50757 39.863 12.9017 39.863C15.6551 39.863 16.9284 39.7135 18.1332 39.2487C19.0089 38.9109 20.387 38.1292 21.1959 37.5119L22.6663 36.3894H68.5197H114.373L115.98 37.5695C116.864 38.2185 118.444 39.0505 119.491 39.4184C120.998 39.948 122.014 40.0631 124.378 39.9715C126.758 39.8792 127.747 39.6764 129.255 38.9728C130.295 38.4871 131.897 37.3878 132.814 36.53C133.823 35.5862 134.905 34.1095 135.554 32.7905C136.566 30.7319 136.626 30.408 136.625 26.9666C136.624 23.6383 136.543 23.1569 135.689 21.4152C135.174 20.3662 134.045 18.7803 133.179 17.8914C132.313 17.0021 130.873 15.9055 129.98 15.4539C129.087 15.0024 127.465 14.4493 126.378 14.2243C125.241 13.9894 123.553 13.9018 122.408 14.0182C121.12 14.1489 119.578 14.6322 118.043 15.3858C116.483 16.1523 115.167 17.112 114.198 18.1901C113.387 19.0916 112.41 20.4972 112.026 21.314C111.642 22.1304 111.181 23.4374 111.001 24.2185C110.82 24.9992 110.67 26.4194 110.665 27.3748L110.657 29.1116H107.658C104.958 29.1116 104.675 29.0537 104.824 28.5326C104.916 28.2141 105.311 25.8196 105.702 23.2112C106.293 19.2712 106.344 18.3016 106.003 17.4792C105.778 16.9347 105.239 16.2575 104.806 15.9736C104.373 15.6901 103.422 15.4579 102.693 15.4579C101.768 15.4579 101.125 15.6862 100.564 16.2135C100.121 16.629 99.6181 17.4305 99.4454 17.9952C99.2727 18.5599 98.7954 21.2918 98.3848 24.0667L97.6382 29.1116H96.3735C95.6778 29.1116 95.1088 28.9647 95.1088 28.7854C95.1088 28.6061 95.4158 26.5322 95.7906 24.1768C96.4158 20.2511 96.43 19.8117 95.958 18.8994C95.6751 18.3519 95.1118 17.6717 94.7062 17.3879C94.3009 17.1037 93.5652 16.8715 93.072 16.8715C92.5784 16.8715 91.8003 17.0137 91.3431 17.1874C90.8859 17.3614 90.2733 17.8679 89.9818 18.3128C89.6901 18.7581 89.1608 21.0348 88.8055 23.3726C88.4502 25.7101 88.083 27.9577 87.989 28.3672C87.8507 28.9703 87.5914 29.1116 86.6218 29.1116H85.4252L85.6482 27.5402C85.7709 26.6761 85.9611 25.0442 86.0706 23.9145C86.2288 22.2869 86.1517 21.6795 85.7014 20.9921C85.3888 20.5147 84.6108 19.906 83.9723 19.6394C83.0682 19.2616 82.5716 19.2338 81.7224 19.514C81.1233 19.7118 80.3969 20.1346 80.1081 20.4535C79.8196 20.7728 79.4372 21.7718 79.2585 22.6743C79.0799 23.5764 78.7633 25.3942 78.5556 26.7132L78.1774 29.1116H75.3731C72.8613 29.1116 72.5857 29.051 72.7306 28.5326C72.8196 28.2141 73.0723 26.6814 73.2923 25.1263C73.6479 22.6131 73.6301 22.1784 73.1309 21.2131C72.7991 20.5713 72.104 19.9328 71.4308 19.6516C70.7702 19.3757 69.9117 19.2659 69.3854 19.3903C68.8865 19.5084 68.1416 19.9107 67.7304 20.2841C67.3188 20.658 66.8428 21.4943 66.6721 22.143C66.5014 22.7917 66.1828 24.6251 65.9641 26.2169L65.5662 29.1116H60.9493C56.6815 29.1116 56.351 29.0679 56.5733 28.5326C56.7057 28.2144 57.0193 27.2974 57.2704 26.4952C57.5215 25.6929 57.7269 24.194 57.7269 23.1645C57.7269 22.1347 57.491 20.4978 57.2029 19.5272C56.9144 18.5566 56.3348 17.2178 55.9147 16.5522C55.4946 15.8866 54.3834 14.652 53.4455 13.8088C52.5077 12.9656 50.9661 11.9877 50.0196 11.6354C49.0732 11.2834 47.5544 10.897 46.6447 10.7772C45.7349 10.6571 44.1718 10.7164 43.1711 10.9082C42.1704 11.1004 40.5564 11.6588 39.5848 12.1491C38.6128 12.6394 37.0974 13.8287 36.2171 14.7916C35.2624 15.8364 34.3331 17.3009 33.9136 18.422C33.5269 19.4558 33.1342 21.2045 33.0413 22.3081C32.9334 23.5847 33.0496 24.9165 33.3599 25.9688C33.6281 26.8786 33.953 27.958 34.082 28.3672C34.3159 29.1106 34.3106 29.1116 30.3908 29.1119H26.4651L26.5696 16.4613C26.6272 9.5036 26.5802 3.30879 26.4651 2.69547C26.3499 2.08214 25.9004 1.22467 25.4657 0.789982C24.8676 0.191871 24.3151 0 23.1903 0C22.0977 0 21.4598 0.210728 20.777 0.797921ZM37.9099 0.851182C37.3531 1.31961 36.7487 2.2578 36.5658 2.93696C36.3494 3.74017 36.3445 4.55927 36.5515 5.28143C36.7265 5.89211 37.1986 6.74131 37.6006 7.16905C38.0025 7.59679 38.8702 8.09202 39.5289 8.26934C40.2997 8.47709 41.1221 8.47841 41.8363 8.27364C42.447 8.09864 43.2948 7.62789 43.7209 7.22761C44.1467 6.82732 44.6409 5.9725 44.8189 5.32808C45.0316 4.55827 45.0293 3.73488 44.8123 2.92935C44.6307 2.25449 44.0266 1.31928 43.4702 0.851182C42.6597 0.169045 42.1072 0 40.69 0C39.2728 0 38.7204 0.169045 37.9099 0.851182ZM47.6119 1.07547C46.7482 1.86678 46.3903 2.50988 46.2559 3.51026C46.1302 4.44745 46.2579 5.25827 46.6662 6.11872C47.0965 7.02548 47.6546 7.54221 48.7046 8.007C49.7136 8.45327 50.4695 8.57666 51.2049 8.41489C51.7845 8.28786 52.6036 7.95771 53.0247 7.68148C53.4462 7.40558 54.0066 6.76248 54.2702 6.2527C54.5339 5.74292 54.7496 4.79017 54.7496 4.13516C54.7496 3.48015 54.5236 2.50789 54.2477 1.97396C53.9718 1.44036 53.3092 0.777742 52.7756 0.501844C52.2417 0.225945 51.1255 0 50.2952 0C49.0526 0 48.5773 0.190549 47.6119 1.07547ZM62.6107 8.78805C62.1125 9.05832 61.4796 9.71499 61.2047 10.2473C60.9295 10.7792 60.7042 11.8808 60.7042 12.6946C60.7042 13.7952 60.9189 14.4291 61.5422 15.1701C62.003 15.7176 62.8965 16.3362 63.528 16.5446C64.1596 16.753 65.1259 16.8248 65.6753 16.7041C66.2251 16.5833 67.115 16.1142 67.6533 15.6614C68.1915 15.2085 68.8012 14.2723 69.0083 13.5815C69.2928 12.6311 69.2891 12.035 68.9921 11.1355C68.776 10.4812 68.1515 9.5691 67.604 9.10828C66.8411 8.4665 66.2463 8.27331 65.062 8.28356C64.2118 8.29084 63.1086 8.51778 62.6107 8.78805ZM71.9992 9.10828C71.4517 9.5691 70.8301 10.4719 70.618 11.1147C70.4056 11.7574 70.3249 12.7763 70.4377 13.3791C70.5509 13.9821 70.9948 14.8542 71.4242 15.3176C71.8536 15.7808 72.813 16.3422 73.556 16.5648C74.6639 16.8966 75.1316 16.884 76.1535 16.4953C76.8598 16.2264 77.7245 15.539 78.1493 14.9088C78.6101 14.225 78.8989 13.299 78.8989 12.5054C78.8989 11.7955 78.673 10.7782 78.3971 10.2443C78.1212 9.71069 77.4586 9.04807 76.925 8.77217C76.391 8.49627 75.2884 8.27033 74.4746 8.27033C73.374 8.27033 72.7402 8.48503 71.9992 9.10828ZM48.8161 18.5408C49.3189 18.8987 50.0411 19.8332 50.4206 20.6173C50.8 21.4013 51.1106 22.5069 51.1106 23.0745C51.1106 23.6419 50.9522 24.5255 50.7586 25.0376C50.5651 25.5497 50.007 26.3966 49.5181 26.9193C49.0295 27.4419 48.1505 28.0748 47.565 28.3252C46.9794 28.5756 45.9599 28.7807 45.2992 28.7807C44.6386 28.7807 43.5903 28.5396 42.9693 28.2452C42.3481 27.9504 41.4737 27.2736 41.0258 26.7413C40.5779 26.209 40.0443 25.1534 39.8402 24.3955C39.5659 23.3772 39.5659 22.6944 39.8402 21.7791C40.0443 21.0976 40.5957 20.0837 41.0655 19.5256C41.5349 18.9672 42.2382 18.3393 42.6279 18.1299C43.0176 17.9205 43.7831 17.6535 44.329 17.5371C44.8748 17.4206 45.902 17.452 46.6116 17.6075C47.3212 17.7627 48.3133 18.1825 48.8161 18.5408ZM125.304 21.1919C125.992 21.3828 127.093 22.0123 127.752 22.5909C128.411 23.1695 129.151 24.1242 129.397 24.7124C129.643 25.3009 129.844 26.39 129.844 27.1326C129.844 27.8753 129.603 28.9591 129.308 29.5416C129.013 30.1238 128.53 30.8764 128.233 31.2142C127.936 31.552 127.141 32.1104 126.467 32.4548C125.791 32.7995 124.633 33.0813 123.892 33.0813C123.151 33.0813 122.064 32.8802 121.475 32.6344C120.887 32.3886 119.93 31.6462 119.349 30.9846C118.769 30.323 118.134 29.1913 117.94 28.4694C117.682 27.5104 117.692 26.7386 117.979 25.601C118.235 24.5827 118.795 23.6197 119.599 22.8165C120.282 22.1327 121.395 21.4383 122.11 21.2491C122.816 21.0625 123.542 20.8952 123.724 20.8773C123.906 20.8594 124.617 21.001 125.304 21.1919Z" fill="#2285C7"/>
</svg>
