<svg width="134" height="40" viewBox="0 0 134 40" fill="none" xmlns="http://www.w3.org/2000/svg">
<g clip-path="url(#clip0_233:33)">
<path d="M36.6292 25.2624C34.4538 25.2624 32.4156 24.3413 30.5635 22.8421L31.0143 20.7254L31.0339 20.6471C31.4356 18.3933 32.7095 14.6108 36.6292 14.6108C39.5689 14.6108 41.9599 17.0018 41.9599 19.9415C41.9501 22.8715 39.5591 25.2624 36.6292 25.2624ZM36.6292 9.21146C31.6218 9.21146 27.7414 12.4648 26.1637 17.8151C23.7531 14.1992 21.9305 9.8582 20.8624 6.20312H15.4729V20.2257C15.4729 22.989 13.2191 25.2428 10.4557 25.2428C7.69234 25.2428 5.43854 22.989 5.43854 20.2257V6.20312H0.0490116V20.2257C0.0294133 25.968 4.7036 30.6814 10.4459 30.6814C16.1882 30.6814 20.8624 25.968 20.8624 20.2257V17.8739C21.9109 20.0591 23.1946 22.2639 24.7526 24.2237L21.4503 39.7456H26.9672L29.3582 28.4864C31.4552 29.8288 33.8658 30.6716 36.6292 30.6716C42.5381 30.6716 47.3494 25.8308 47.3494 19.9219C47.3494 14.0228 42.5381 9.21146 36.6292 9.21146Z" fill="#6FDA44"/>
<path d="M63.8022 9.81885L67.2809 23.8414L71.1123 9.81885H75.6787L69.7894 30.0835H65.2231L61.6072 15.9727L58.0011 30.0737H53.4347L47.5454 9.80905H52.1118L55.9433 23.8316L59.422 9.80905H63.8022V9.81885ZM86.6048 9.2113C80.6763 9.2113 75.8747 14.0227 75.8747 19.9414C75.8747 25.8698 80.6861 30.6714 86.6048 30.6714C92.5333 30.6714 97.3446 25.8698 97.3446 19.9414C97.3446 14.0129 92.5333 9.2113 86.6048 9.2113ZM86.6048 26.2618C83.1163 26.2618 80.2941 23.4396 80.2941 19.9512C80.2941 16.4627 83.1261 13.6405 86.6048 13.6405C90.0933 13.6405 92.9154 16.4627 92.9154 19.9512C92.9154 23.4298 90.0933 26.2618 86.6048 26.2618ZM110.387 14.3558C107.32 14.3558 104.841 16.8448 104.841 19.9022V30.0737H100.245V9.81885H104.841V12.935C104.841 12.935 106.801 9.80905 110.828 9.80905H112.239V14.3558H110.387ZM125.811 19.1574C129.074 17.3152 131.289 13.8169 131.289 9.80905H126.693C126.693 13.1897 123.949 15.9335 120.569 15.9335H119.951V0.0393066H115.355V30.0737H119.951V20.5293H120.5C120.951 20.5293 121.539 20.8233 121.803 21.1858L128.33 30.0737H133.837L125.811 19.1574Z" fill="black"/>
</g>
<defs>
<clipPath id="clip0_233:33">
<rect width="133.856" height="40" fill="white"/>
</clipPath>
</defs>
</svg>
