<svg width="650" height="450" viewBox="0 0 650 450" fill="none" xmlns="http://www.w3.org/2000/svg">
<path d="M75.6015 181.744C75.6015 177.616 77.4255 172.96 81.0735 167.776C84.7215 162.592 87.4575 160 89.2815 160C91.0095 160 91.8735 160.576 91.8735 161.728C91.8735 162.208 91.4415 163.84 90.5775 166.624C89.8095 169.312 89.4255 171.28 89.4255 172.528C89.4255 173.776 89.7615 174.592 90.4335 174.976C93.5055 177.088 95.0415 180.208 95.0415 184.336C95.0415 186.832 94.0815 188.848 92.1615 190.384C90.3375 191.92 87.9375 192.688 84.9615 192.688C78.7215 192.688 75.6015 189.04 75.6015 181.744ZM104.402 181.744C104.402 177.616 106.226 172.96 109.874 167.776C113.522 162.592 116.258 160 118.082 160C119.81 160 120.674 160.576 120.674 161.728C120.674 162.208 120.242 163.84 119.378 166.624C118.61 169.312 118.226 171.28 118.226 172.528C118.226 173.776 118.562 174.592 119.234 174.976C122.306 177.088 123.842 180.208 123.842 184.336C123.842 186.832 122.882 188.848 120.962 190.384C119.138 191.92 116.738 192.688 113.762 192.688C107.522 192.688 104.402 189.04 104.402 181.744Z" fill="black" fill-opacity="0.2"/>
<path d="M117.752 199H115.592V183.76H110.24V181.864H123.08V183.76H117.752V199ZM127.488 186.112C127.488 186.752 127.448 187.352 127.368 187.912H127.512C127.928 187.256 128.488 186.76 129.192 186.424C129.912 186.088 130.688 185.92 131.52 185.92C133.088 185.92 134.264 186.296 135.048 187.048C135.832 187.784 136.224 188.976 136.224 190.624V199H134.136V190.768C134.136 188.704 133.176 187.672 131.256 187.672C129.816 187.672 128.824 188.08 128.28 188.896C127.752 189.696 127.488 190.848 127.488 192.352V199H125.376V180.76H127.488V186.112ZM145.084 185.92C146.652 185.92 147.812 186.264 148.564 186.952C149.316 187.64 149.692 188.736 149.692 190.24V199H148.156L147.748 197.176H147.652C147.092 197.88 146.5 198.4 145.876 198.736C145.268 199.072 144.42 199.24 143.332 199.24C142.164 199.24 141.196 198.936 140.428 198.328C139.66 197.704 139.276 196.736 139.276 195.424C139.276 194.144 139.78 193.16 140.788 192.472C141.796 191.768 143.348 191.384 145.444 191.32L147.628 191.248V190.48C147.628 189.408 147.396 188.664 146.932 188.248C146.468 187.832 145.812 187.624 144.964 187.624C144.292 187.624 143.652 187.728 143.044 187.936C142.436 188.128 141.868 188.352 141.34 188.608L140.692 187.024C141.252 186.72 141.916 186.464 142.684 186.256C143.452 186.032 144.252 185.92 145.084 185.92ZM145.708 192.784C144.108 192.848 142.996 193.104 142.372 193.552C141.764 194 141.46 194.632 141.46 195.448C141.46 196.168 141.676 196.696 142.108 197.032C142.556 197.368 143.124 197.536 143.812 197.536C144.9 197.536 145.804 197.24 146.524 196.648C147.244 196.04 147.604 195.112 147.604 193.864V192.712L145.708 192.784ZM159.857 185.896C161.393 185.896 162.553 186.272 163.337 187.024C164.121 187.76 164.513 188.96 164.513 190.624V199H162.425V190.768C162.425 188.704 161.465 187.672 159.545 187.672C158.121 187.672 157.137 188.072 156.593 188.872C156.049 189.672 155.777 190.824 155.777 192.328V199H153.665V186.136H155.369L155.681 187.888H155.801C156.217 187.216 156.793 186.72 157.529 186.4C158.265 186.064 159.041 185.896 159.857 185.896ZM170.589 190.288C170.589 190.544 170.573 190.88 170.541 191.296C170.525 191.712 170.509 192.072 170.493 192.376H170.589C170.685 192.248 170.829 192.064 171.021 191.824C171.213 191.584 171.405 191.344 171.597 191.104C171.805 190.848 171.981 190.64 172.125 190.48L176.229 186.136H178.701L173.493 191.632L179.061 199H176.517L172.053 193L170.589 194.272V199H168.501V180.76H170.589V190.288ZM185.54 186.136H187.796L190.58 193.456C190.82 194.096 191.036 194.712 191.228 195.304C191.42 195.88 191.564 196.432 191.66 196.96H191.756C191.852 196.56 192.004 196.04 192.212 195.4C192.42 194.744 192.636 194.088 192.86 193.432L195.476 186.136H197.756L192.212 200.776C191.764 201.992 191.18 202.96 190.46 203.68C189.756 204.4 188.78 204.76 187.532 204.76C187.148 204.76 186.812 204.736 186.524 204.688C186.236 204.656 185.988 204.616 185.78 204.568V202.888C185.956 202.92 186.164 202.952 186.404 202.984C186.66 203.016 186.924 203.032 187.196 203.032C187.932 203.032 188.524 202.824 188.972 202.408C189.436 201.992 189.796 201.44 190.052 200.752L190.724 199.048L185.54 186.136ZM210.974 192.544C210.974 194.672 210.43 196.32 209.342 197.488C208.27 198.656 206.814 199.24 204.974 199.24C203.838 199.24 202.822 198.984 201.926 198.472C201.046 197.944 200.35 197.184 199.838 196.192C199.326 195.184 199.07 193.968 199.07 192.544C199.07 190.416 199.606 188.776 200.678 187.624C201.75 186.472 203.206 185.896 205.046 185.896C206.214 185.896 207.238 186.16 208.118 186.688C209.014 187.2 209.71 187.952 210.206 188.944C210.718 189.92 210.974 191.12 210.974 192.544ZM201.254 192.544C201.254 194.064 201.55 195.272 202.142 196.168C202.75 197.048 203.71 197.488 205.022 197.488C206.318 197.488 207.27 197.048 207.878 196.168C208.486 195.272 208.79 194.064 208.79 192.544C208.79 191.024 208.486 189.832 207.878 188.968C207.27 188.104 206.31 187.672 204.998 187.672C203.686 187.672 202.734 188.104 202.142 188.968C201.55 189.832 201.254 191.024 201.254 192.544ZM225.073 186.136V199H223.345L223.033 197.296H222.937C222.521 197.968 221.945 198.464 221.209 198.784C220.473 199.088 219.689 199.24 218.857 199.24C217.305 199.24 216.137 198.872 215.353 198.136C214.569 197.384 214.177 196.192 214.177 194.56V186.136H216.313V194.416C216.313 196.464 217.265 197.488 219.169 197.488C220.593 197.488 221.577 197.088 222.121 196.288C222.681 195.488 222.961 194.336 222.961 192.832V186.136H225.073ZM239.952 185.896C240.8 185.896 241.56 186.056 242.232 186.376C242.92 186.696 243.504 187.184 243.984 187.84H244.104L244.392 186.136H246.072V199.216C246.072 201.056 245.6 202.44 244.656 203.368C243.728 204.296 242.28 204.76 240.312 204.76C238.424 204.76 236.88 204.488 235.68 203.944V202C236.944 202.672 238.528 203.008 240.432 203.008C241.536 203.008 242.4 202.68 243.024 202.024C243.664 201.384 243.984 200.504 243.984 199.384V198.88C243.984 198.688 243.992 198.416 244.008 198.064C244.024 197.696 244.04 197.44 244.056 197.296H243.96C243.096 198.592 241.768 199.24 239.976 199.24C238.312 199.24 237.008 198.656 236.064 197.488C235.136 196.32 234.672 194.688 234.672 192.592C234.672 190.544 235.136 188.92 236.064 187.72C237.008 186.504 238.304 185.896 239.952 185.896ZM240.24 187.672C239.168 187.672 238.336 188.104 237.744 188.968C237.152 189.816 236.856 191.032 236.856 192.616C236.856 194.2 237.144 195.416 237.72 196.264C238.312 197.096 239.168 197.512 240.288 197.512C241.584 197.512 242.528 197.168 243.12 196.48C243.712 195.776 244.008 194.648 244.008 193.096V192.592C244.008 190.832 243.704 189.576 243.096 188.824C242.488 188.056 241.536 187.672 240.24 187.672ZM256.157 185.896C256.397 185.896 256.653 185.912 256.925 185.944C257.213 185.96 257.461 185.992 257.669 186.04L257.405 187.984C257.197 187.936 256.965 187.896 256.709 187.864C256.469 187.832 256.237 187.816 256.013 187.816C255.357 187.816 254.741 188 254.165 188.368C253.589 188.72 253.125 189.224 252.773 189.88C252.437 190.52 252.269 191.272 252.269 192.136V199H250.157V186.136H251.885L252.125 188.488H252.221C252.637 187.784 253.173 187.176 253.829 186.664C254.485 186.152 255.261 185.896 256.157 185.896ZM264.571 185.896C265.675 185.896 266.619 186.136 267.403 186.616C268.203 187.096 268.811 187.776 269.227 188.656C269.659 189.52 269.875 190.536 269.875 191.704V192.976H261.067C261.099 194.432 261.467 195.544 262.171 196.312C262.891 197.064 263.891 197.44 265.171 197.44C265.987 197.44 266.707 197.368 267.331 197.224C267.971 197.064 268.627 196.84 269.299 196.552V198.4C268.643 198.688 267.995 198.896 267.355 199.024C266.715 199.168 265.955 199.24 265.075 199.24C263.859 199.24 262.779 198.992 261.835 198.496C260.907 198 260.179 197.264 259.651 196.288C259.139 195.296 258.883 194.088 258.883 192.664C258.883 191.256 259.115 190.048 259.579 189.04C260.059 188.032 260.723 187.256 261.571 186.712C262.435 186.168 263.435 185.896 264.571 185.896ZM264.547 187.624C263.539 187.624 262.739 187.952 262.147 188.608C261.571 189.248 261.227 190.144 261.115 191.296H267.667C267.651 190.208 267.395 189.328 266.899 188.656C266.403 187.968 265.619 187.624 264.547 187.624ZM278.021 185.92C279.589 185.92 280.749 186.264 281.501 186.952C282.253 187.64 282.629 188.736 282.629 190.24V199H281.093L280.685 197.176H280.589C280.029 197.88 279.437 198.4 278.813 198.736C278.205 199.072 277.357 199.24 276.269 199.24C275.101 199.24 274.133 198.936 273.365 198.328C272.597 197.704 272.213 196.736 272.213 195.424C272.213 194.144 272.717 193.16 273.725 192.472C274.733 191.768 276.285 191.384 278.381 191.32L280.565 191.248V190.48C280.565 189.408 280.333 188.664 279.869 188.248C279.405 187.832 278.749 187.624 277.901 187.624C277.229 187.624 276.589 187.728 275.981 187.936C275.373 188.128 274.805 188.352 274.277 188.608L273.629 187.024C274.189 186.72 274.853 186.464 275.621 186.256C276.389 186.032 277.189 185.92 278.021 185.92ZM278.645 192.784C277.045 192.848 275.933 193.104 275.309 193.552C274.701 194 274.397 194.632 274.397 195.448C274.397 196.168 274.613 196.696 275.045 197.032C275.493 197.368 276.061 197.536 276.749 197.536C277.837 197.536 278.741 197.24 279.461 196.648C280.181 196.04 280.541 195.112 280.541 193.864V192.712L278.645 192.784ZM290.898 197.512C291.219 197.512 291.547 197.488 291.883 197.44C292.219 197.376 292.491 197.312 292.699 197.248V198.856C292.475 198.968 292.155 199.056 291.739 199.12C291.323 199.2 290.923 199.24 290.539 199.24C289.867 199.24 289.243 199.128 288.667 198.904C288.107 198.664 287.651 198.256 287.299 197.68C286.947 197.104 286.771 196.296 286.771 195.256V187.768H284.947V186.76L286.795 185.92L287.635 183.184H288.883V186.136H292.603V187.768H288.883V195.208C288.883 195.992 289.067 196.576 289.435 196.96C289.819 197.328 290.307 197.512 290.898 197.512ZM309.813 191.728C309.605 191.072 309.421 190.432 309.261 189.808C309.117 189.168 309.005 188.672 308.925 188.32H308.829C308.765 188.672 308.661 189.168 308.517 189.808C308.373 190.432 308.189 191.08 307.965 191.752L305.661 198.976H303.261L299.733 186.112H301.917L303.693 192.976C303.869 193.664 304.037 194.36 304.197 195.064C304.357 195.768 304.469 196.352 304.533 196.816H304.629C304.693 196.544 304.765 196.208 304.845 195.808C304.941 195.408 305.045 194.992 305.157 194.56C305.269 194.112 305.381 193.712 305.493 193.36L307.773 186.112H310.077L312.285 193.36C312.461 193.904 312.629 194.496 312.789 195.136C312.965 195.776 313.085 196.328 313.149 196.792H313.245C313.293 196.392 313.397 195.84 313.557 195.136C313.733 194.432 313.917 193.712 314.109 192.976L315.909 186.112H318.069L314.493 198.976H312.021L309.813 191.728ZM331.56 192.544C331.56 194.672 331.016 196.32 329.928 197.488C328.856 198.656 327.4 199.24 325.56 199.24C324.424 199.24 323.408 198.984 322.512 198.472C321.632 197.944 320.936 197.184 320.424 196.192C319.912 195.184 319.656 193.968 319.656 192.544C319.656 190.416 320.192 188.776 321.264 187.624C322.336 186.472 323.792 185.896 325.632 185.896C326.8 185.896 327.824 186.16 328.704 186.688C329.6 187.2 330.296 187.952 330.792 188.944C331.304 189.92 331.56 191.12 331.56 192.544ZM321.84 192.544C321.84 194.064 322.136 195.272 322.728 196.168C323.336 197.048 324.296 197.488 325.608 197.488C326.904 197.488 327.856 197.048 328.464 196.168C329.072 195.272 329.376 194.064 329.376 192.544C329.376 191.024 329.072 189.832 328.464 188.968C327.856 188.104 326.896 187.672 325.584 187.672C324.272 187.672 323.32 188.104 322.728 188.968C322.136 189.832 321.84 191.024 321.84 192.544ZM340.907 185.896C341.147 185.896 341.403 185.912 341.675 185.944C341.963 185.96 342.211 185.992 342.419 186.04L342.155 187.984C341.947 187.936 341.715 187.896 341.459 187.864C341.219 187.832 340.987 187.816 340.763 187.816C340.107 187.816 339.491 188 338.915 188.368C338.339 188.72 337.875 189.224 337.523 189.88C337.187 190.52 337.019 191.272 337.019 192.136V199H334.907V186.136H336.635L336.875 188.488H336.971C337.387 187.784 337.923 187.176 338.579 186.664C339.235 186.152 340.011 185.896 340.907 185.896ZM346.909 190.288C346.909 190.544 346.893 190.88 346.861 191.296C346.845 191.712 346.829 192.072 346.813 192.376H346.909C347.005 192.248 347.149 192.064 347.341 191.824C347.533 191.584 347.725 191.344 347.917 191.104C348.125 190.848 348.301 190.64 348.445 190.48L352.549 186.136H355.021L349.813 191.632L355.381 199H352.837L348.373 193L346.909 194.272V199H344.821V180.76H346.909V190.288ZM358.191 181.867H360.98L360.137 194.172H359.035L358.191 181.867ZM358.074 197.535C358.074 197.223 358.113 196.965 358.191 196.762C358.27 196.551 358.375 196.383 358.508 196.258C358.648 196.133 358.809 196.043 358.988 195.988C359.176 195.934 359.375 195.906 359.586 195.906C359.789 195.906 359.98 195.934 360.16 195.988C360.348 196.043 360.508 196.133 360.641 196.258C360.781 196.383 360.891 196.551 360.969 196.762C361.055 196.965 361.098 197.223 361.098 197.535C361.098 197.84 361.055 198.098 360.969 198.309C360.891 198.52 360.781 198.688 360.641 198.812C360.508 198.938 360.348 199.027 360.16 199.082C359.98 199.137 359.789 199.164 359.586 199.164C359.375 199.164 359.176 199.137 358.988 199.082C358.809 199.027 358.648 198.938 358.508 198.812C358.375 198.688 358.27 198.52 358.191 198.309C358.113 198.098 358.074 197.84 358.074 197.535ZM376.884 181.864C379.012 181.864 380.58 182.272 381.588 183.088C382.612 183.888 383.124 185.104 383.124 186.736C383.124 187.648 382.956 188.408 382.62 189.016C382.284 189.624 381.852 190.112 381.324 190.48C380.812 190.832 380.268 191.112 379.692 191.32L384.396 199H381.876L377.724 191.92H374.316V199H372.156V181.864H376.884ZM376.764 183.736H374.316V190.096H376.884C378.276 190.096 379.292 189.824 379.932 189.28C380.572 188.72 380.892 187.904 380.892 186.832C380.892 185.712 380.556 184.92 379.884 184.456C379.212 183.976 378.172 183.736 376.764 183.736ZM391.766 185.896C392.87 185.896 393.814 186.136 394.598 186.616C395.398 187.096 396.006 187.776 396.422 188.656C396.854 189.52 397.07 190.536 397.07 191.704V192.976H388.262C388.294 194.432 388.662 195.544 389.366 196.312C390.086 197.064 391.086 197.44 392.366 197.44C393.182 197.44 393.902 197.368 394.526 197.224C395.166 197.064 395.822 196.84 396.494 196.552V198.4C395.838 198.688 395.19 198.896 394.55 199.024C393.91 199.168 393.15 199.24 392.27 199.24C391.054 199.24 389.974 198.992 389.03 198.496C388.102 198 387.374 197.264 386.846 196.288C386.334 195.296 386.078 194.088 386.078 192.664C386.078 191.256 386.31 190.048 386.774 189.04C387.254 188.032 387.918 187.256 388.766 186.712C389.63 186.168 390.63 185.896 391.766 185.896ZM391.742 187.624C390.734 187.624 389.934 187.952 389.342 188.608C388.766 189.248 388.422 190.144 388.31 191.296H394.862C394.846 190.208 394.59 189.328 394.094 188.656C393.598 187.968 392.814 187.624 391.742 187.624ZM405.505 199.24C404.369 199.24 403.353 199.008 402.457 198.544C401.577 198.08 400.881 197.36 400.369 196.384C399.873 195.408 399.625 194.16 399.625 192.64C399.625 191.056 399.889 189.768 400.417 188.776C400.945 187.784 401.657 187.056 402.553 186.592C403.465 186.128 404.497 185.896 405.649 185.896C406.305 185.896 406.937 185.968 407.545 186.112C408.153 186.24 408.649 186.4 409.033 186.592L408.385 188.344C408.001 188.2 407.553 188.064 407.041 187.936C406.529 187.808 406.049 187.744 405.601 187.744C403.073 187.744 401.809 189.368 401.809 192.616C401.809 194.168 402.113 195.36 402.721 196.192C403.345 197.008 404.265 197.416 405.481 197.416C406.185 197.416 406.801 197.344 407.329 197.2C407.873 197.056 408.369 196.88 408.817 196.672V198.544C408.385 198.768 407.905 198.936 407.377 199.048C406.865 199.176 406.241 199.24 405.505 199.24ZM423.06 192.544C423.06 194.672 422.516 196.32 421.428 197.488C420.356 198.656 418.9 199.24 417.06 199.24C415.924 199.24 414.908 198.984 414.012 198.472C413.132 197.944 412.436 197.184 411.924 196.192C411.412 195.184 411.156 193.968 411.156 192.544C411.156 190.416 411.692 188.776 412.764 187.624C413.836 186.472 415.292 185.896 417.132 185.896C418.3 185.896 419.324 186.16 420.204 186.688C421.1 187.2 421.796 187.952 422.292 188.944C422.804 189.92 423.06 191.12 423.06 192.544ZM413.34 192.544C413.34 194.064 413.636 195.272 414.228 196.168C414.836 197.048 415.796 197.488 417.108 197.488C418.404 197.488 419.356 197.048 419.964 196.168C420.572 195.272 420.876 194.064 420.876 192.544C420.876 191.024 420.572 189.832 419.964 188.968C419.356 188.104 418.396 187.672 417.084 187.672C415.772 187.672 414.82 188.104 414.228 188.968C413.636 189.832 413.34 191.024 413.34 192.544ZM440.519 185.896C441.975 185.896 443.063 186.272 443.783 187.024C444.503 187.76 444.863 188.96 444.863 190.624V199H442.775V190.72C442.775 188.688 441.903 187.672 440.159 187.672C438.911 187.672 438.015 188.032 437.471 188.752C436.943 189.472 436.679 190.52 436.679 191.896V199H434.591V190.72C434.591 188.688 433.711 187.672 431.951 187.672C430.655 187.672 429.759 188.072 429.263 188.872C428.767 189.672 428.519 190.824 428.519 192.328V199H426.407V186.136H428.111L428.423 187.888H428.543C428.943 187.216 429.479 186.72 430.151 186.4C430.839 186.064 431.567 185.896 432.335 185.896C434.351 185.896 435.663 186.616 436.271 188.056H436.391C436.823 187.32 437.407 186.776 438.143 186.424C438.895 186.072 439.687 185.896 440.519 185.896ZM462.949 185.896C464.405 185.896 465.493 186.272 466.213 187.024C466.933 187.76 467.293 188.96 467.293 190.624V199H465.205V190.72C465.205 188.688 464.333 187.672 462.589 187.672C461.341 187.672 460.445 188.032 459.901 188.752C459.373 189.472 459.109 190.52 459.109 191.896V199H457.021V190.72C457.021 188.688 456.141 187.672 454.381 187.672C453.085 187.672 452.189 188.072 451.693 188.872C451.197 189.672 450.949 190.824 450.949 192.328V199H448.837V186.136H450.541L450.853 187.888H450.973C451.373 187.216 451.909 186.72 452.581 186.4C453.269 186.064 453.997 185.896 454.765 185.896C456.781 185.896 458.093 186.616 458.701 188.056H458.821C459.253 187.32 459.837 186.776 460.573 186.424C461.325 186.072 462.117 185.896 462.949 185.896ZM476.235 185.896C477.339 185.896 478.283 186.136 479.067 186.616C479.867 187.096 480.475 187.776 480.891 188.656C481.323 189.52 481.539 190.536 481.539 191.704V192.976H472.731C472.763 194.432 473.131 195.544 473.835 196.312C474.555 197.064 475.555 197.44 476.835 197.44C477.651 197.44 478.371 197.368 478.995 197.224C479.635 197.064 480.291 196.84 480.963 196.552V198.4C480.307 198.688 479.659 198.896 479.019 199.024C478.379 199.168 477.619 199.24 476.739 199.24C475.523 199.24 474.443 198.992 473.499 198.496C472.571 198 471.843 197.264 471.315 196.288C470.803 195.296 470.547 194.088 470.547 192.664C470.547 191.256 470.779 190.048 471.243 189.04C471.723 188.032 472.387 187.256 473.235 186.712C474.099 186.168 475.099 185.896 476.235 185.896ZM476.211 187.624C475.203 187.624 474.403 187.952 473.811 188.608C473.235 189.248 472.891 190.144 472.779 191.296H479.331C479.315 190.208 479.059 189.328 478.563 188.656C478.067 187.968 477.283 187.624 476.211 187.624ZM491.005 185.896C492.541 185.896 493.701 186.272 494.485 187.024C495.269 187.76 495.661 188.96 495.661 190.624V199H493.573V190.768C493.573 188.704 492.613 187.672 490.693 187.672C489.269 187.672 488.285 188.072 487.741 188.872C487.197 189.672 486.925 190.824 486.925 192.328V199H484.813V186.136H486.517L486.829 187.888H486.949C487.365 187.216 487.941 186.72 488.677 186.4C489.413 186.064 490.189 185.896 491.005 185.896ZM504.209 199.24C502.609 199.24 501.329 198.688 500.369 197.584C499.409 196.464 498.929 194.8 498.929 192.592C498.929 190.384 499.409 188.72 500.369 187.6C501.345 186.464 502.633 185.896 504.233 185.896C505.225 185.896 506.033 186.08 506.657 186.448C507.297 186.816 507.817 187.264 508.217 187.792H508.361C508.345 187.584 508.313 187.28 508.265 186.88C508.233 186.464 508.217 186.136 508.217 185.896V180.76H510.329V199H508.625L508.313 197.272H508.217C507.833 197.816 507.321 198.28 506.681 198.664C506.041 199.048 505.217 199.24 504.209 199.24ZM504.545 197.488C505.905 197.488 506.857 197.12 507.401 196.384C507.961 195.632 508.241 194.504 508.241 193V192.616C508.241 191.016 507.977 189.792 507.449 188.944C506.921 188.08 505.945 187.648 504.521 187.648C503.385 187.648 502.529 188.104 501.953 189.016C501.393 189.912 501.113 191.12 501.113 192.64C501.113 194.176 501.393 195.368 501.953 196.216C502.529 197.064 503.393 197.488 504.545 197.488ZM519.383 185.896C520.487 185.896 521.431 186.136 522.215 186.616C523.015 187.096 523.623 187.776 524.039 188.656C524.471 189.52 524.687 190.536 524.687 191.704V192.976H515.879C515.911 194.432 516.279 195.544 516.983 196.312C517.703 197.064 518.703 197.44 519.983 197.44C520.799 197.44 521.519 197.368 522.143 197.224C522.783 197.064 523.439 196.84 524.111 196.552V198.4C523.455 198.688 522.807 198.896 522.167 199.024C521.527 199.168 520.767 199.24 519.887 199.24C518.671 199.24 517.591 198.992 516.647 198.496C515.719 198 514.991 197.264 514.463 196.288C513.951 195.296 513.695 194.088 513.695 192.664C513.695 191.256 513.927 190.048 514.391 189.04C514.871 188.032 515.535 187.256 516.383 186.712C517.247 186.168 518.247 185.896 519.383 185.896ZM519.359 187.624C518.351 187.624 517.551 187.952 516.959 188.608C516.383 189.248 516.039 190.144 515.927 191.296H522.479C522.463 190.208 522.207 189.328 521.711 188.656C521.215 187.968 520.431 187.624 519.359 187.624ZM532.522 199.24C530.922 199.24 529.642 198.688 528.682 197.584C527.722 196.464 527.242 194.8 527.242 192.592C527.242 190.384 527.722 188.72 528.682 187.6C529.658 186.464 530.946 185.896 532.546 185.896C533.538 185.896 534.346 186.08 534.97 186.448C535.61 186.816 536.13 187.264 536.53 187.792H536.674C536.658 187.584 536.626 187.28 536.578 186.88C536.546 186.464 536.53 186.136 536.53 185.896V180.76H538.642V199H536.938L536.626 197.272H536.53C536.146 197.816 535.634 198.28 534.994 198.664C534.354 199.048 533.53 199.24 532.522 199.24ZM532.858 197.488C534.218 197.488 535.17 197.12 535.714 196.384C536.274 195.632 536.554 194.504 536.554 193V192.616C536.554 191.016 536.29 189.792 535.762 188.944C535.234 188.08 534.258 187.648 532.834 187.648C531.698 187.648 530.842 188.104 530.266 189.016C529.706 189.912 529.426 191.12 529.426 192.64C529.426 194.176 529.706 195.368 530.266 196.216C530.842 197.064 531.706 197.488 532.858 197.488Z" fill="black"/>
<g clip-path="url(#clip0_2:16)">
<path d="M473.386 304.947C471.879 304.947 470.466 304.256 469.182 303.131L469.495 301.544L469.508 301.485C469.787 299.795 470.67 296.958 473.386 296.958C475.424 296.958 477.081 298.751 477.081 300.956C477.074 303.153 475.417 304.947 473.386 304.947ZM473.386 292.908C469.916 292.908 467.227 295.348 466.133 299.361C464.463 296.649 463.199 293.394 462.459 290.652H458.724V301.169C458.724 303.242 457.162 304.932 455.247 304.932C453.332 304.932 451.77 303.242 451.77 301.169V290.652H448.034V301.169C448.021 305.476 451.26 309.011 455.24 309.011C459.22 309.011 462.459 305.476 462.459 301.169V299.405C463.186 301.044 464.075 302.698 465.155 304.168L462.867 315.809H466.69L468.347 307.365C469.8 308.372 471.471 309.004 473.386 309.004C477.481 309.004 480.816 305.373 480.816 300.941C480.816 296.517 477.481 292.908 473.386 292.908Z" fill="#6FDA44"/>
<path d="M492.218 293.364L494.629 303.881L497.284 293.364H500.449L496.367 308.563H493.203L490.697 297.979L488.198 308.555H485.033L480.951 293.357H484.116L486.771 303.874L489.182 293.357H492.218V293.364ZM508.021 292.908C503.913 292.908 500.585 296.517 500.585 300.956C500.585 305.402 503.919 309.003 508.021 309.003C512.13 309.003 515.465 305.402 515.465 300.956C515.465 296.51 512.13 292.908 508.021 292.908ZM508.021 305.696C505.604 305.696 503.648 303.58 503.648 300.963C503.648 298.347 505.61 296.23 508.021 296.23C510.439 296.23 512.395 298.347 512.395 300.963C512.395 303.572 510.439 305.696 508.021 305.696ZM524.504 296.767C522.378 296.767 520.66 298.634 520.66 300.927V308.555H517.475V293.364H520.66V295.701C520.66 295.701 522.018 293.357 524.809 293.357H525.787V296.767H524.504ZM535.193 300.368C537.455 298.986 538.99 296.363 538.99 293.357H535.804C535.804 295.892 533.903 297.95 531.56 297.95H531.132V286.029H527.947V308.555H531.132V301.397H531.512C531.825 301.397 532.232 301.617 532.416 301.889L536.939 308.555H540.755L535.193 300.368Z" fill="black"/>
</g>
<path d="M138.554 306.469V312.24C138.554 312.881 138.41 313.414 138.121 313.84C137.836 314.266 137.457 314.586 136.984 314.801C136.515 315.012 136.006 315.117 135.455 315.117C134.877 315.117 134.353 315.012 133.885 314.801C133.42 314.586 133.051 314.266 132.777 313.84C132.508 313.414 132.373 312.881 132.373 312.24V306.469H133.498V312.24C133.498 312.908 133.677 313.402 134.037 313.723C134.396 314.043 134.869 314.203 135.455 314.203C136.045 314.203 136.517 314.043 136.873 313.723C137.232 313.402 137.412 312.908 137.412 312.24V306.469H138.554ZM141.25 317.438H140.154V308.66H141.15L141.209 309.352C141.424 309.09 141.683 308.891 141.988 308.754C142.293 308.613 142.644 308.543 143.043 308.543C143.574 308.543 144.023 308.678 144.39 308.947C144.758 309.217 145.037 309.596 145.228 310.084C145.42 310.568 145.515 311.133 145.515 311.777V311.9C145.515 312.518 145.42 313.068 145.228 313.553C145.037 314.037 144.758 314.42 144.39 314.701C144.027 314.979 143.584 315.117 143.06 315.117C142.67 315.117 142.324 315.055 142.023 314.93C141.722 314.805 141.465 314.625 141.25 314.391V317.438ZM144.42 311.777C144.42 311.355 144.359 310.969 144.238 310.617C144.121 310.262 143.935 309.979 143.681 309.768C143.431 309.557 143.109 309.451 142.715 309.451C142.351 309.451 142.051 309.535 141.812 309.703C141.578 309.867 141.39 310.074 141.25 310.324V313.377C141.39 313.627 141.578 313.834 141.812 313.998C142.051 314.158 142.355 314.238 142.726 314.238C143.117 314.238 143.437 314.131 143.687 313.916C143.937 313.701 144.121 313.418 144.238 313.066C144.359 312.711 144.42 312.322 144.42 311.9V311.777ZM150.127 308.66H151.011L152.506 313.465L153.724 308.66H154.808L152.969 315H152.084L150.549 310.213L149.049 315H148.164L146.324 308.66H147.414L148.656 313.359L150.127 308.66ZM155.635 311.766C155.635 311.152 155.752 310.604 155.986 310.119C156.22 309.635 156.552 309.252 156.982 308.971C157.412 308.686 157.922 308.543 158.511 308.543C159.109 308.543 159.625 308.686 160.058 308.971C160.492 309.252 160.824 309.635 161.054 310.119C161.289 310.604 161.406 311.152 161.406 311.766V311.9C161.406 312.51 161.289 313.059 161.054 313.547C160.824 314.031 160.492 314.414 160.058 314.695C159.629 314.977 159.117 315.117 158.523 315.117C157.929 315.117 157.416 314.977 156.982 314.695C156.552 314.414 156.22 314.031 155.986 313.547C155.752 313.059 155.635 312.51 155.635 311.9V311.766ZM156.73 311.9C156.73 312.318 156.797 312.705 156.929 313.061C157.062 313.416 157.26 313.701 157.521 313.916C157.787 314.131 158.121 314.238 158.523 314.238C158.922 314.238 159.252 314.131 159.513 313.916C159.779 313.701 159.978 313.416 160.111 313.061C160.244 312.705 160.31 312.318 160.31 311.9V311.766C160.31 311.348 160.244 310.961 160.111 310.605C159.978 310.25 159.779 309.965 159.513 309.75C159.248 309.531 158.914 309.422 158.511 309.422C158.117 309.422 157.787 309.531 157.521 309.75C157.256 309.965 157.056 310.25 156.924 310.605C156.795 310.961 156.73 311.348 156.73 311.766V311.9ZM163.867 315H162.771V308.66H163.838L163.861 309.381C164.021 309.123 164.224 308.92 164.47 308.771C164.72 308.619 165.017 308.543 165.361 308.543C165.435 308.543 165.523 308.553 165.625 308.572C165.73 308.588 165.802 308.605 165.842 308.625V309.627C165.674 309.596 165.496 309.58 165.308 309.58C164.941 309.58 164.638 309.664 164.4 309.832C164.162 309.996 163.984 310.219 163.867 310.5V315ZM167.939 315H166.844V306H167.939V311.438L168.519 310.752L170.476 308.66H171.806L169.34 311.303L172.099 315H170.81L168.619 312.059L167.939 312.762V315ZM178.451 314.238C178.838 314.238 179.176 314.121 179.465 313.887C179.754 313.652 179.914 313.355 179.945 312.996H180.982C180.963 313.371 180.836 313.721 180.601 314.045C180.367 314.365 180.062 314.625 179.687 314.824C179.312 315.02 178.9 315.117 178.451 315.117C177.814 315.117 177.287 314.973 176.869 314.684C176.451 314.391 176.138 314.004 175.931 313.523C175.728 313.043 175.627 312.52 175.627 311.953V311.707C175.627 311.137 175.73 310.613 175.937 310.137C176.144 309.656 176.457 309.271 176.875 308.982C177.293 308.689 177.818 308.543 178.451 308.543C178.947 308.543 179.381 308.645 179.752 308.848C180.127 309.047 180.42 309.32 180.631 309.668C180.845 310.012 180.963 310.402 180.982 310.84H179.945C179.918 310.445 179.769 310.111 179.5 309.838C179.234 309.561 178.885 309.422 178.451 309.422C178.01 309.422 177.662 309.535 177.408 309.762C177.158 309.988 176.98 310.277 176.875 310.629C176.773 310.977 176.722 311.336 176.722 311.707V311.953C176.722 312.324 176.773 312.686 176.875 313.037C176.976 313.389 177.152 313.678 177.402 313.904C177.656 314.127 178.006 314.238 178.451 314.238ZM183.39 315H182.295V306H183.39V315ZM185.131 306.973C185.131 306.801 185.183 306.654 185.289 306.533C185.398 306.412 185.558 306.352 185.769 306.352C185.98 306.352 186.14 306.412 186.25 306.533C186.363 306.654 186.42 306.801 186.42 306.973C186.42 307.141 186.363 307.285 186.25 307.406C186.14 307.523 185.98 307.582 185.769 307.582C185.558 307.582 185.398 307.523 185.289 307.406C185.183 307.285 185.131 307.141 185.131 306.973ZM186.308 315H185.213V308.66H186.308V315ZM190.674 315.117C190.084 315.117 189.57 314.986 189.133 314.725C188.699 314.459 188.361 314.096 188.119 313.635C187.881 313.174 187.761 312.646 187.761 312.053V311.801C187.761 311.113 187.892 310.527 188.154 310.043C188.42 309.555 188.763 309.184 189.185 308.93C189.611 308.672 190.06 308.543 190.533 308.543C191.142 308.543 191.638 308.68 192.021 308.953C192.408 309.223 192.691 309.592 192.871 310.061C193.054 310.525 193.146 311.053 193.146 311.643V312.129H188.857C188.869 312.52 188.949 312.875 189.097 313.195C189.25 313.512 189.465 313.766 189.742 313.957C190.019 314.145 190.349 314.238 190.732 314.238C191.115 314.238 191.439 314.16 191.705 314.004C191.97 313.848 192.203 313.639 192.402 313.377L193.064 313.893C192.861 314.205 192.568 314.488 192.185 314.742C191.806 314.992 191.302 315.117 190.674 315.117ZM190.533 309.422C190.103 309.422 189.74 309.58 189.443 309.896C189.15 310.213 188.967 310.664 188.892 311.25H192.051V311.168C192.035 310.887 191.978 310.613 191.881 310.348C191.783 310.078 191.627 309.857 191.412 309.686C191.197 309.51 190.904 309.422 190.533 309.422ZM195.508 315H194.412V308.66H195.449L195.484 309.439C195.711 309.158 195.984 308.939 196.304 308.783C196.625 308.623 196.98 308.543 197.371 308.543C197.996 308.543 198.49 308.721 198.853 309.076C199.22 309.428 199.404 310.018 199.404 310.846V315H198.308V310.834C198.308 310.334 198.201 309.979 197.986 309.768C197.771 309.557 197.459 309.451 197.049 309.451C196.701 309.451 196.394 309.545 196.129 309.732C195.867 309.92 195.66 310.164 195.508 310.465V315ZM203.711 309.486H202.527V313.43C202.527 313.758 202.597 313.967 202.738 314.057C202.883 314.146 203.045 314.191 203.224 314.191C203.314 314.191 203.408 314.184 203.506 314.168C203.607 314.152 203.681 314.139 203.728 314.127L203.734 315C203.648 315.027 203.535 315.053 203.394 315.076C203.258 315.104 203.092 315.117 202.896 315.117C202.631 315.117 202.386 315.064 202.164 314.959C201.941 314.854 201.763 314.678 201.631 314.432C201.498 314.182 201.431 313.846 201.431 313.424V309.486H200.277V308.66H201.431V307.119H202.527V308.66H203.711V309.486Z" fill="black" fill-opacity="0.8"/>
<path d="M135.217 287.047L137.684 294.149L140.145 287.047H142.955V297H140.802V294.423L141.013 289.699L138.409 297H136.946L134.348 289.699L134.56 294.423V297H132.407V287.047H135.217ZM146.585 297H144.513V286.5H146.585V290.383C146.826 290.096 147.111 289.872 147.439 289.713C147.767 289.549 148.13 289.467 148.526 289.467C149.255 289.467 149.845 289.686 150.297 290.123C150.752 290.561 150.98 291.306 150.98 292.358V297H148.909V292.345C148.909 291.884 148.809 291.57 148.608 291.401C148.408 291.228 148.125 291.142 147.76 291.142C147.473 291.142 147.234 291.194 147.043 291.299C146.851 291.404 146.699 291.547 146.585 291.729V297ZM154.494 297H152.429V289.604H154.371L154.439 290.41C154.681 290.114 154.977 289.884 155.328 289.72C155.683 289.551 156.089 289.467 156.545 289.467C156.982 289.467 157.37 289.556 157.707 289.733C158.044 289.911 158.306 290.194 158.493 290.581C158.73 290.235 159.031 289.964 159.395 289.768C159.764 289.567 160.197 289.467 160.694 289.467C161.405 289.467 161.977 289.679 162.41 290.103C162.843 290.526 163.059 291.26 163.059 292.304V297H160.981V292.297C160.981 291.823 160.888 291.513 160.701 291.367C160.514 291.217 160.257 291.142 159.928 291.142C159.646 291.142 159.409 291.21 159.218 291.347C159.026 291.483 158.878 291.668 158.773 291.9C158.773 291.955 158.773 292.01 158.773 292.064V297H156.709V292.317C156.709 291.843 156.613 291.529 156.422 291.374C156.235 291.219 155.975 291.142 155.642 291.142C155.378 291.142 155.15 291.199 154.959 291.312C154.767 291.426 154.612 291.584 154.494 291.784V297ZM164.235 293.233C164.235 292.513 164.372 291.871 164.645 291.306C164.919 290.736 165.317 290.287 165.842 289.959C166.366 289.631 167.001 289.467 167.749 289.467C168.505 289.467 169.146 289.631 169.67 289.959C170.198 290.287 170.597 290.736 170.866 291.306C171.139 291.871 171.276 292.513 171.276 293.233V293.377C171.276 294.092 171.139 294.735 170.866 295.305C170.597 295.87 170.201 296.316 169.677 296.645C169.152 296.973 168.514 297.137 167.762 297.137C167.01 297.137 166.37 296.973 165.842 296.645C165.317 296.316 164.919 295.87 164.645 295.305C164.372 294.735 164.235 294.092 164.235 293.377V293.233ZM166.306 293.377C166.306 293.764 166.352 294.118 166.443 294.437C166.534 294.756 166.687 295.008 166.901 295.195C167.115 295.382 167.402 295.476 167.762 295.476C168.296 295.476 168.669 295.273 168.884 294.867C169.102 294.457 169.212 293.96 169.212 293.377V293.233C169.212 292.855 169.164 292.507 169.068 292.188C168.977 291.868 168.824 291.613 168.61 291.422C168.4 291.226 168.113 291.128 167.749 291.128C167.393 291.128 167.111 291.226 166.901 291.422C166.691 291.613 166.539 291.868 166.443 292.188C166.352 292.507 166.306 292.855 166.306 293.233V293.377ZM176.8 289.604H178.864V297H176.929L176.875 296.241C176.647 296.524 176.364 296.745 176.027 296.904C175.694 297.059 175.307 297.137 174.865 297.137C174.136 297.137 173.543 296.923 173.088 296.494C172.636 296.066 172.411 295.364 172.411 294.389V289.604H174.475V294.402C174.475 294.781 174.569 295.052 174.756 295.216C174.942 295.38 175.184 295.462 175.48 295.462C175.822 295.462 176.098 295.403 176.307 295.284C176.522 295.166 176.686 295.006 176.8 294.806V289.604ZM180.012 293.247C180.012 292.495 180.124 291.837 180.347 291.271C180.575 290.702 180.903 290.26 181.332 289.945C181.765 289.626 182.291 289.467 182.911 289.467C183.28 289.467 183.608 289.535 183.895 289.672C184.182 289.809 184.435 290.002 184.654 290.253V286.5H186.732V297H184.866L184.763 296.221C184.54 296.508 184.274 296.733 183.964 296.897C183.654 297.057 183.298 297.137 182.897 297.137C182.287 297.137 181.765 296.975 181.332 296.651C180.903 296.323 180.575 295.877 180.347 295.312C180.124 294.746 180.012 294.106 180.012 293.391V293.247ZM182.077 293.391C182.077 293.969 182.175 294.459 182.371 294.86C182.571 295.261 182.922 295.462 183.424 295.462C183.724 295.462 183.975 295.398 184.176 295.271C184.381 295.143 184.54 294.965 184.654 294.737V291.859C184.417 291.381 184.011 291.142 183.437 291.142C182.941 291.142 182.59 291.344 182.385 291.75C182.179 292.151 182.077 292.65 182.077 293.247V293.391ZM195.824 287.047H197.964V293.917C197.964 294.582 197.816 295.157 197.519 295.64C197.228 296.118 196.827 296.487 196.316 296.747C195.81 297.007 195.241 297.137 194.607 297.137C193.955 297.137 193.374 297.027 192.864 296.809C192.358 296.585 191.959 296.246 191.668 295.79C191.381 295.33 191.237 294.746 191.237 294.04H193.397C193.397 294.56 193.504 294.917 193.719 295.113C193.937 295.309 194.233 295.407 194.607 295.407C194.981 295.407 195.277 295.277 195.496 295.018C195.715 294.758 195.824 294.391 195.824 293.917V287.047ZM203.501 292.071C203.501 291.739 203.419 291.474 203.255 291.278C203.091 291.082 202.829 290.984 202.469 290.984C202.154 290.984 201.91 291.06 201.737 291.21C201.564 291.36 201.477 291.57 201.477 291.839H199.413C199.413 291.401 199.543 291.005 199.802 290.649C200.062 290.289 200.429 290.002 200.903 289.788C201.377 289.574 201.935 289.467 202.578 289.467C203.152 289.467 203.665 289.565 204.116 289.761C204.567 289.952 204.923 290.242 205.182 290.629C205.442 291.016 205.572 291.502 205.572 292.085V295.175C205.572 295.612 205.597 295.959 205.647 296.214C205.702 296.469 205.777 296.692 205.873 296.884V297H203.795C203.713 296.827 203.647 296.61 203.596 296.351C203.405 296.569 203.159 296.756 202.858 296.911C202.562 297.062 202.195 297.137 201.758 297.137C201.288 297.137 200.862 297.043 200.479 296.856C200.101 296.665 199.8 296.403 199.577 296.07C199.354 295.733 199.242 295.348 199.242 294.915C199.242 294.14 199.529 293.541 200.103 293.117C200.677 292.689 201.532 292.475 202.667 292.475H203.501V292.071ZM202.216 295.571C202.535 295.571 202.803 295.503 203.022 295.366C203.246 295.225 203.405 295.07 203.501 294.901V293.664H202.728C202.227 293.664 201.865 293.773 201.641 293.992C201.418 294.206 201.306 294.466 201.306 294.771C201.306 295.004 201.388 295.195 201.552 295.346C201.717 295.496 201.938 295.571 202.216 295.571ZM209.113 297H207.049V289.604H208.99L209.058 290.41C209.3 290.114 209.596 289.884 209.947 289.72C210.302 289.551 210.708 289.467 211.164 289.467C211.601 289.467 211.989 289.556 212.326 289.733C212.663 289.911 212.925 290.194 213.112 290.581C213.349 290.235 213.65 289.964 214.014 289.768C214.384 289.567 214.816 289.467 215.313 289.467C216.024 289.467 216.596 289.679 217.029 290.103C217.462 290.526 217.678 291.26 217.678 292.304V297H215.6V292.297C215.6 291.823 215.507 291.513 215.32 291.367C215.133 291.217 214.876 291.142 214.548 291.142C214.265 291.142 214.028 291.21 213.837 291.347C213.645 291.483 213.497 291.668 213.392 291.9C213.392 291.955 213.392 292.01 213.392 292.064V297H211.328V292.317C211.328 291.843 211.232 291.529 211.041 291.374C210.854 291.219 210.594 291.142 210.261 291.142C209.997 291.142 209.769 291.199 209.578 291.312C209.386 291.426 209.232 291.584 209.113 291.784V297ZM219.141 287.696C219.141 287.391 219.246 287.138 219.456 286.938C219.665 286.737 219.946 286.637 220.297 286.637C220.648 286.637 220.926 286.737 221.131 286.938C221.34 287.138 221.445 287.391 221.445 287.696C221.445 288.006 221.34 288.261 221.131 288.462C220.926 288.658 220.648 288.756 220.297 288.756C219.946 288.756 219.665 288.658 219.456 288.462C219.246 288.261 219.141 288.006 219.141 287.696ZM221.336 297H219.264V289.604H221.336V297ZM225.095 297H223.024V286.5H225.095V297Z" fill="black"/>
<path d="M241.949 288.469H243.08V294.51C243.08 295.326 242.834 295.965 242.342 296.426C241.853 296.887 241.201 297.117 240.385 297.117C239.537 297.117 238.877 296.9 238.404 296.467C237.932 296.033 237.695 295.426 237.695 294.645H238.82C238.82 295.133 238.953 295.514 239.219 295.787C239.488 296.061 239.877 296.197 240.385 296.197C240.849 296.197 241.224 296.051 241.51 295.758C241.799 295.465 241.945 295.055 241.949 294.527V288.469ZM248.74 296.373C248.318 296.869 247.699 297.117 246.883 297.117C246.207 297.117 245.691 296.922 245.336 296.531C244.984 296.137 244.807 295.555 244.803 294.785V290.66H245.887V294.756C245.887 295.717 246.277 296.197 247.058 296.197C247.887 296.197 248.437 295.889 248.711 295.271V290.66H249.795V297H248.764L248.74 296.373ZM252.625 297H251.541V288H252.625V297ZM256.439 295.412L257.916 290.66H259.076L256.527 297.979C256.133 299.033 255.506 299.561 254.646 299.561L254.441 299.543L254.037 299.467V298.588L254.33 298.611C254.697 298.611 254.982 298.537 255.185 298.389C255.392 298.24 255.562 297.969 255.695 297.574L255.935 296.93L253.674 290.66H254.857L256.439 295.412ZM268.504 297H262.914V296.221L265.867 292.939C266.305 292.443 266.605 292.041 266.769 291.732C266.937 291.42 267.021 291.098 267.021 290.766C267.021 290.32 266.887 289.955 266.617 289.67C266.348 289.385 265.988 289.242 265.539 289.242C265 289.242 264.58 289.396 264.279 289.705C263.982 290.01 263.834 290.436 263.834 290.982H262.75C262.75 290.197 263.002 289.562 263.506 289.078C264.014 288.594 264.691 288.352 265.539 288.352C266.332 288.352 266.959 288.561 267.42 288.979C267.881 289.393 268.111 289.945 268.111 290.637C268.111 291.477 267.576 292.477 266.506 293.637L264.221 296.115H268.504V297ZM274.826 290.695C274.826 291.121 274.713 291.5 274.486 291.832C274.264 292.164 273.961 292.424 273.578 292.611C274.023 292.803 274.375 293.082 274.633 293.449C274.894 293.816 275.025 294.232 275.025 294.697C275.025 295.436 274.775 296.023 274.275 296.461C273.779 296.898 273.125 297.117 272.312 297.117C271.492 297.117 270.834 296.898 270.338 296.461C269.846 296.02 269.599 295.432 269.599 294.697C269.599 294.236 269.724 293.82 269.974 293.449C270.228 293.078 270.578 292.797 271.023 292.605C270.644 292.418 270.346 292.158 270.127 291.826C269.908 291.494 269.799 291.117 269.799 290.695C269.799 289.977 270.029 289.406 270.49 288.984C270.951 288.562 271.558 288.352 272.312 288.352C273.062 288.352 273.668 288.562 274.129 288.984C274.594 289.406 274.826 289.977 274.826 290.695ZM273.941 294.674C273.941 294.197 273.789 293.809 273.484 293.508C273.183 293.207 272.789 293.057 272.301 293.057C271.812 293.057 271.42 293.205 271.123 293.502C270.83 293.799 270.683 294.189 270.683 294.674C270.683 295.158 270.826 295.539 271.111 295.816C271.4 296.094 271.801 296.232 272.312 296.232C272.82 296.232 273.219 296.094 273.508 295.816C273.797 295.535 273.941 295.154 273.941 294.674ZM272.312 289.242C271.887 289.242 271.541 289.375 271.275 289.641C271.014 289.902 270.883 290.26 270.883 290.713C270.883 291.146 271.012 291.498 271.269 291.768C271.531 292.033 271.879 292.166 272.312 292.166C272.746 292.166 273.092 292.033 273.349 291.768C273.611 291.498 273.742 291.146 273.742 290.713C273.742 290.279 273.607 289.926 273.338 289.652C273.068 289.379 272.726 289.242 272.312 289.242ZM276.467 298.699L275.851 298.277C276.219 297.766 276.41 297.238 276.426 296.695V295.717H277.486V296.566C277.486 296.961 277.389 297.355 277.193 297.75C277.002 298.145 276.76 298.461 276.467 298.699ZM287.312 297H281.723V296.221L284.676 292.939C285.113 292.443 285.414 292.041 285.578 291.732C285.746 291.42 285.83 291.098 285.83 290.766C285.83 290.32 285.695 289.955 285.426 289.67C285.156 289.385 284.797 289.242 284.348 289.242C283.808 289.242 283.389 289.396 283.088 289.705C282.791 290.01 282.642 290.436 282.642 290.982H281.558C281.558 290.197 281.81 289.562 282.314 289.078C282.822 288.594 283.5 288.352 284.348 288.352C285.141 288.352 285.767 288.561 286.228 288.979C286.689 289.393 286.92 289.945 286.92 290.637C286.92 291.477 286.385 292.477 285.314 293.637L283.029 296.115H287.312V297ZM293.81 293.361C293.81 294.631 293.594 295.574 293.16 296.191C292.726 296.809 292.049 297.117 291.127 297.117C290.217 297.117 289.543 296.816 289.105 296.215C288.668 295.609 288.441 294.707 288.426 293.508V292.061C288.426 290.807 288.642 289.875 289.076 289.266C289.51 288.656 290.189 288.352 291.115 288.352C292.033 288.352 292.709 288.646 293.142 289.236C293.576 289.822 293.799 290.729 293.81 291.955V293.361ZM292.726 291.879C292.726 290.961 292.598 290.293 292.34 289.875C292.082 289.453 291.674 289.242 291.115 289.242C290.56 289.242 290.156 289.451 289.902 289.869C289.648 290.287 289.517 290.93 289.51 291.797V293.531C289.51 294.453 289.642 295.135 289.908 295.576C290.178 296.014 290.584 296.232 291.127 296.232C291.662 296.232 292.058 296.025 292.316 295.611C292.578 295.197 292.715 294.545 292.726 293.654V291.879ZM300.789 297H295.199V296.221L298.152 292.939C298.59 292.443 298.891 292.041 299.055 291.732C299.223 291.42 299.307 291.098 299.307 290.766C299.307 290.32 299.172 289.955 298.902 289.67C298.633 289.385 298.273 289.242 297.824 289.242C297.285 289.242 296.865 289.396 296.564 289.705C296.267 290.01 296.119 290.436 296.119 290.982H295.035C295.035 290.197 295.287 289.562 295.791 289.078C296.299 288.594 296.976 288.352 297.824 288.352C298.617 288.352 299.244 288.561 299.705 288.979C300.166 289.393 300.396 289.945 300.396 290.637C300.396 291.477 299.861 292.477 298.791 293.637L296.506 296.115H300.789V297ZM305.5 297H304.41V289.775L302.224 290.578V289.594L305.33 288.428H305.5V297Z" fill="black" fill-opacity="0.5"/>
<defs>
<clipPath id="clip0_2:16">
<rect width="92.7689" height="30" fill="white" transform="translate(448 286)"/>
</clipPath>
</defs>
</svg>
